<?xml version="1.0" encoding="UTF-8"?>
<svg width="20px" height="20px" viewBox="0 0 20 20" version="1.1" xmlns="http://www.w3.org/2000/svg" xmlns:xlink="http://www.w3.org/1999/xlink">
    <!-- Generator: sketchtool 52.4 (67378) - http://www.bohemiancoding.com/sketch -->
    <title>E0F0DB1B-6175-4D34-AE24-282139D2DB88</title>
    <desc>Created with sketchtool.</desc>
    <g id="Symbols" stroke="none" stroke-width="1" fill="none" fill-rule="evenodd">
        <g id="Menu/header/forchats/with-pic" transform="translate(-293.000000, -34.000000)" fill="#93929B" fill-rule="nonzero">
            <g id="icons/general/call-outline" transform="translate(293.000000, 34.000000)">
                <path d="M3.91764536,0 C4.12550577,1.42108547e-15 4.32037198,0.0390621094 4.50224984,0.1171875 C4.68412769,0.195312891 4.82702958,0.312499219 4.93095978,0.46875 C4.98292489,0.546875391 5.14206562,0.781248047 5.40838677,1.171875 C5.67470792,1.56250195 5.96051169,1.98892998 6.26580666,2.45117187 C6.57110164,2.91341377 6.85690541,3.34309697 7.12322656,3.74023437 C7.38954771,4.13737178 7.55518398,4.38802031 7.62014036,4.4921875 C7.73706184,4.68750098 7.78902616,4.92838398 7.77603489,5.21484375 C7.76304361,5.50130352 7.67860159,5.80077969 7.52270628,6.11328125 C7.43176735,6.26953203 7.27587439,6.5429668 7.0550227,6.93359375 C6.83417102,7.3242207 6.65879143,7.64322793 6.52887868,7.890625 C6.67178271,8.09895937 6.94784317,8.45051836 7.35706835,8.9453125 C7.76629352,9.44010664 8.35413992,10.0716107 9.12062517,10.8398437 C9.9001017,11.6210977 10.5366647,12.2167948 11.0303331,12.6269531 C11.5240016,13.0371114 11.8747608,13.3138014 12.0826212,13.4570312 C12.3164641,13.3268223 12.6314978,13.1477876 13.0277317,12.9199219 C13.4239656,12.6920562 13.7000261,12.5390629 13.8559214,12.4609375 C14.024808,12.3697912 14.1904443,12.3014325 14.3528352,12.2558594 C14.5152262,12.2102862 14.6743669,12.1875 14.8302622,12.1875 C14.9471837,12.1875 15.0576079,12.2037759 15.1615381,12.2363281 C15.2654683,12.2688804 15.3629014,12.3111977 15.4538403,12.3632812 C15.5577705,12.4283857 15.8143443,12.5943997 16.2235695,12.8613281 C16.6327947,13.1282565 17.0679959,13.414712 17.5291862,13.7207031 C17.9903765,14.0266942 18.4158343,14.3098945 18.8055726,14.5703125 C19.1953109,14.8307305 19.4291503,14.9934893 19.507098,15.0585938 C19.7669235,15.2278654 19.9260642,15.5045554 19.984525,15.8886719 C20.0429857,16.2727884 19.9358093,16.6666646 19.6629925,17.0703125 L19.3122298,17.5292969 C19.0783869,17.835288 18.7925831,18.1705711 18.4548099,18.5351562 C18.1170368,18.8997414 17.7565343,19.2350245 17.3732917,19.5410156 C16.990049,19.8470067 16.6490332,20 16.3502338,20 C15.4733228,19.9739582 14.5899293,19.765627 13.6805401,19.375 C12.7711508,18.984373 11.8747662,18.4928415 10.9913595,17.9003906 C10.1079528,17.3079397 9.25378921,16.6503942 8.42884321,15.9277344 C7.60389722,15.2050745 6.84716678,14.4987014 6.15862918,13.8085937 C5.47009158,13.1184861 4.76857323,12.3600302 4.05405307,11.5332031 C3.33953292,10.7063761 2.68673112,9.85026484 2.09562809,8.96484375 C1.50452506,8.07942266 1.01411176,7.18424932 0.624373499,6.27929687 C0.234635235,5.37434443 0.0267779458,4.49870215 0.000795394871,3.65234375 C-0.0121958806,3.33984219 0.133953776,2.99479355 0.43924875,2.6171875 C0.744543723,2.23958145 1.07906405,1.88151211 1.44281976,1.54296875 C1.80657547,1.20442539 2.1410958,0.917969922 2.44639077,0.68359375 C2.75168575,0.449217578 2.91082648,0.325520898 2.92381776,0.3125 C3.07971307,0.208332812 3.24210157,0.130208594 3.41098815,0.078125 C3.57987474,0.0260414062 3.74875878,7.10542736e-16 3.91764536,0 Z M16.7493466,18.7595474 C17.093764,18.4845554 17.4176925,18.183185 17.7212442,17.8555377 C18.0348163,17.5170747 18.3005858,17.2061727 18.5176838,16.922093 L18.8492955,16.4881683 C18.9491009,16.3369558 19.0190317,16.1910603 18.9959093,16.0391346 C18.9885822,15.9909917 19.0038174,15.9242099 18.9612369,15.8964695 C18.9521781,15.8905678 18.9425603,15.8877738 18.9325788,15.8871551 C18.9043963,15.8599966 18.8822427,15.8396192 18.8660533,15.8260973 C18.797829,15.7691141 18.5909398,15.629592 18.2499977,15.401779 C17.8610881,15.1419147 17.4365346,14.859317 16.9763249,14.5539765 C16.5174418,14.2495161 16.0844188,13.9644921 15.6772408,13.698899 C15.3015625,13.4538524 15.0572087,13.2955156 14.9440847,13.2240246 C14.9184774,13.2105367 14.8912536,13.1995753 14.8626436,13.1906143 C14.8524847,13.1874324 14.8415157,13.1875 14.8302622,13.1875 C14.7624644,13.1875 14.6935209,13.1988826 14.6230351,13.2186636 C14.5273053,13.2455291 14.4303072,13.2872858 14.3308586,13.3409572 C14.3265426,13.3432865 14.3222478,13.3456243 14.3179745,13.3479708 C14.3131796,13.3503455 14.3085049,13.3526741 14.3039502,13.3549566 C14.1574906,13.4283534 13.8984881,13.5727348 13.5262542,13.7867987 C13.1249802,14.0175628 12.805927,14.198853 12.5691096,14.3307183 C12.4267477,14.4099886 12.2535512,14.5051149 12.0495127,14.6160889 C11.8149902,14.476422 11.6369984,14.3643863 11.5152161,14.2804701 C11.2934257,14.1276415 10.918093,13.8338117 10.3912823,13.3961177 C9.88002382,12.9713449 9.21999591,12.3552679 8.41271359,11.5461448 C7.61861132,10.7502318 7.01042886,10.0952422 6.58647546,9.5826402 C6.14982599,9.05468735 5.85669903,8.67854908 5.70423508,8.45627766 C5.6228416,8.33761719 5.5149725,8.1657668 5.38107575,7.94043302 C5.479693,7.742646 5.56718781,7.57107825 5.64352392,7.42570892 C5.77712783,7.17128267 5.95739222,6.84315778 6.18451957,6.44143088 C6.39448084,6.07006612 6.5465249,5.80325043 6.64060801,5.64094944 C6.71968235,5.47730725 6.77017633,5.32136201 6.77706167,5.16953918 C6.77972517,5.11080845 6.78822029,5.05396356 6.7645109,5.01000744 C6.69747213,4.90353684 6.54003509,4.66603885 6.29268787,4.29719531 C6.02515831,3.89825593 5.73805622,3.46662409 5.431376,3.00228481 C5.12899401,2.54445341 4.84592431,2.12208938 4.58214426,1.73518957 C4.32591836,1.35936985 4.16761637,1.12623998 4.10717185,1.03583544 C4.04819632,1.01057776 3.98473305,1 3.70568641,1.03371536 C3.62917113,1.05731221 3.55608017,1.09343608 3.48541548,1.13997119 C3.38970172,1.21698879 3.24685164,1.3297787 3.05534041,1.47680264 C2.77193145,1.69437683 2.46176658,1.96072896 2.12410272,2.27498892 C1.795303,2.58099913 1.49284264,2.90458197 1.21688234,3.24590524 C1.1100416,3.3780519 0.99488128,3.48930438 0.999932403,3.61080775 C0.99997793,3.6119029 1.00003312,3.61299641 1.00009788,3.6140883 C1.00017151,3.61661226 1.00024705,3.61913582 1.00032451,3.62165898 C1.02271963,4.35116013 1.20718685,5.10442852 1.54281834,5.8837478 C1.90943419,6.73501117 2.37131027,7.57675199 2.92732172,8.40960892 C3.49574344,9.26105538 4.12357544,10.084254 4.81067586,10.8793515 C5.50869334,11.687082 6.1939034,12.4281216 6.86654076,13.1022927 C7.54019741,13.7774854 8.28066288,14.4684944 9.08777745,15.1755338 C9.87992575,15.8694626 10.7000549,16.5009682 11.5483441,17.0698678 C12.3785128,17.6266149 13.2205984,18.0890798 14.0752178,18.4561804 C14.8532367,18.7903774 15.6085316,18.974597 16.3593962,18.9997917 C16.4832487,18.9941776 16.6034323,18.8760493 16.7493466,18.7595474 Z" id="Combined-Shape"></path>
            </g>
        </g>
    </g>
</svg>