<?xml version="1.0" encoding="UTF-8"?>
<svg width="20px" height="20px" viewBox="0 0 20 20" version="1.1" xmlns="http://www.w3.org/2000/svg" xmlns:xlink="http://www.w3.org/1999/xlink">
    <!-- Generator: sketchtool 52.4 (67378) - http://www.bohemiancoding.com/sketch -->
    <title>DAEF58F4-3343-4000-AB39-877B5E06ACD7</title>
    <desc>Created with sketchtool.</desc>
    <g id="Symbols" stroke="none" stroke-width="1" fill="none" fill-rule="evenodd">
        <g id="Menu/bars/Bottom/empty" transform="translate(-75.000000, -13.000000)" fill="#93929B" fill-rule="nonzero">
            <g id="icons/camera" transform="translate(75.000000, 13.000000)">
                <path d="M10,6 C13.3135,6 16,8.6865 16,12 C16,15.3135 13.3135,18 10,18 C6.6865,18 4,15.3135 4,12 C4,8.6865 6.6865,6 10,6 Z M10,7 C7.243,7 5,9.243 5,12 C5,14.757 7.243,17 10,17 C12.757,17 15,14.757 15,12 C15,9.243 12.757,7 10,7 Z M10,8.5 C11.933,8.5 13.5,10.067 13.5,12 C13.5,13.933 11.933,15.5 10,15.5 C8.067,15.5 6.5,13.933 6.5,12 C6.5,10.067 8.067,8.5 10,8.5 Z M10,9.5 C8.6215,9.5 7.5,10.6215 7.5,12 C7.5,13.3785 8.6215,14.5 10,14.5 C11.3785,14.5 12.5,13.3785 12.5,12 C12.5,10.6215 11.3785,9.5 10,9.5 Z M7,5 L7,2 L13,2 L13,5 L7,5 Z M8,4 L12,4 L12,3 L8,3 L8,4 Z M14.5,0 L5.5,0 C5.224,0 5,0.2235 5,0.5 L5,3.5 L0.5,3.5 C0.224,3.5 0,3.7235 0,4 L0,19.5 C0,19.7765 0.224,20 0.5,20 L19.5,20 C19.7765,20 20,19.7765 20,19.5 L20,4 C20,3.7235 19.7765,3.5 19.5,3.5 L15,3.5 L15,0.5 C15,0.2235 14.7765,0 14.5,0 M14,1 L14,3.5 L14,4.5 L15,4.5 L19,4.5 L19,19 L1,19 L1,4.5 L5,4.5 L6,4.5 L6,3.5 L6,1 L14,1" id="CAMERA-OUTLINE"></path>
            </g>
        </g>
    </g>
</svg>