<?xml version="1.0" encoding="UTF-8"?>
<svg width="20px" height="20px" viewBox="0 0 20 20" version="1.1" xmlns="http://www.w3.org/2000/svg" xmlns:xlink="http://www.w3.org/1999/xlink">
    <!-- Generator: sketchtool 52.4 (67378) - http://www.bohemiancoding.com/sketch -->
    <title>011F9891-96CB-4C21-B728-B9B964F12407</title>
    <desc>Created with sketchtool.</desc>
    <g id="Symbols" stroke="none" stroke-width="1" fill="none" fill-rule="evenodd">
        <g id="input/for-chats/empty" transform="translate(-285.000000, -10.000000)" fill="#93929B" fill-rule="nonzero">
            <g id="icons/emoji">
                <g transform="translate(285.000000, 10.000000)">
                    <path d="M6.5,5.5 C5.3955,5.5 4.5,6.3955 4.5,7.5 C4.5,8.6045 5.3955,9.5 6.5,9.5 C7.6045,9.5 8.5,8.6045 8.5,7.5 C8.5,6.3955 7.6045,5.5 6.5,5.5 M6.5,6.5 C7.0515,6.5 7.5,6.9485 7.5,7.5 C7.5,8.0515 7.0515,8.5 6.5,8.5 C5.9485,8.5 5.5,8.0515 5.5,7.5 C5.5,6.9485 5.9485,6.5 6.5,6.5 Z M10,0 C15.523,0 20,4.477 20,10 C20,15.523 15.523,20 10,20 C4.477,20 0,15.523 0,10 C0,4.477 4.477,0 10,0 Z M10,1 C5.0375,1 1,5.0375 1,10 C1,14.9625 5.0375,19 10,19 C14.9625,19 19,14.9625 19,10 C19,5.0375 14.9625,1 10,1 Z M10,16.5 C6.6355,16.5 4,14.743 4,12.5 L5,12.5 C5,14.126 7.2895,15.5 10,15.5 C12.7105,15.5 15,14.126 15,12.5 L16,12.5 C16,14.743 13.3645,16.5 10,16.5 Z M13,5.5 C14.1045,5.5 15,6.3955 15,7.5 C15,8.6045 14.1045,9.5 13,9.5 C11.8955,9.5 11,8.6045 11,7.5 C11,6.3955 11.8955,5.5 13,5.5 Z M13,6.5 C12.4485,6.5 12,6.9485 12,7.5 C12,8.0515 12.4485,8.5 13,8.5 C13.5515,8.5 14,8.0515 14,7.5 C14,6.9485 13.5515,6.5 13,6.5 Z" id="Fill-5"></path>
                </g>
            </g>
        </g>
    </g>
</svg>