<?xml version="1.0" encoding="UTF-8"?>
<svg width="20px" height="20px" viewBox="0 0 20 20" version="1.1" xmlns="http://www.w3.org/2000/svg" xmlns:xlink="http://www.w3.org/1999/xlink">
    <!-- Generator: sketchtool 52.4 (67378) - http://www.bohemiancoding.com/sketch -->
    <title>2965E4D4-71F7-48E4-8DAF-64659C7988BE</title>
    <desc>Created with sketchtool.</desc>
    <g id="Symbols" stroke="none" stroke-width="1" fill="none" fill-rule="evenodd">
        <g id="icons/chat/erase" fill="#ff1431" fill-rule="nonzero">
            <path d="M17.8875001,4.234375 C17.7624994,4.57812672 17.6531255,4.75 17.5593751,4.75 L3.40312506,4.75 C3.15312381,4.75 3.02031264,4.73437516 3.00468756,4.703125 C2.98906248,4.67187484 3.01249975,4.51562641 3.07500006,4.234375 L3.26250006,3.625 C3.35625053,3.37499875 3.65312256,3.20312547 4.15312506,3.109375 L6.63750006,2.78125 C6.85625115,2.74999984 7.01249959,2.64062594 7.10625006,2.453125 C7.16875037,2.29687422 7.23906217,2.12500094 7.31718756,1.9375 C7.39531295,1.74999906 7.4499999,1.60937547 7.48125006,1.515625 C7.51250022,1.42187453 7.55937475,1.32812547 7.62187506,1.234375 C7.68437537,1.14062453 7.74687475,1.07812516 7.80937506,1.046875 C7.87187537,1.01562484 7.94999959,1 8.04375006,1 L12.8718751,1 C12.9656255,1 13.0437497,1.01562484 13.1062501,1.046875 C13.1687504,1.07812516 13.2312497,1.14843695 13.2937501,1.2578125 C13.3562504,1.36718805 13.4109373,1.46093711 13.4578126,1.5390625 C13.5046878,1.61718789 13.5671872,1.75781148 13.6453126,1.9609375 C13.723438,2.16406352 13.7937497,2.32812438 13.8562501,2.453125 C13.9500005,2.64062594 14.106249,2.74999984 14.3250001,2.78125 L16.8093751,3.0625 C17.3093776,3.15625047 17.6062496,3.32812375 17.7000001,3.578125 C17.7625004,3.73437578 17.8249997,3.95312359 17.8875001,4.234375 Z M16.2468751,6.25 C16.6218769,6.25 16.8562496,6.28906211 16.9500001,6.3671875 C17.0437505,6.44531289 17.0750002,6.64062344 17.0437501,6.953125 L16.1531251,18.296875 C16.1218749,18.5156261 16.0906252,18.6640621 16.0593751,18.7421875 C16.0281249,18.8203129 15.9578131,18.8828123 15.8484376,18.9296875 C15.739062,18.9765627 15.5750012,19 15.3562501,19 L5.60625006,19 C5.26249834,19 5.05937537,18.9609379 4.99687506,18.8828125 C4.93437475,18.8046871 4.87187537,18.6093766 4.80937506,18.296875 L3.91875006,6.953125 C3.8874999,6.67187359 3.91874959,6.48437547 4.01250006,6.390625 C4.10625053,6.29687453 4.34062319,6.25 4.71562506,6.25 L16.2468751,6.25 Z" id="ion-trash-b---Ionicons"></path>
        </g>
    </g>
</svg>