<?xml version="1.0" encoding="UTF-8"?>
<svg width="40px" height="40px" viewBox="0 0 40 40" version="1.1" xmlns="http://www.w3.org/2000/svg" xmlns:xlink="http://www.w3.org/1999/xlink">
    <!-- Generator: sketchtool 52.3 (67297) - http://www.bohemiancoding.com/sketch -->
    <title>F3F18995-9E77-4A30-8028-A81578423B6D</title>
    <desc>Created with sketchtool.</desc>
    <defs>
        <path d="M20,2 C19.8022489,2 19.6524674,2.04255422 19.506519,2.13469913 C19.3673853,2.22254153 19.2761565,2.32726421 19.1979026,2.49784975 L14.2171996,13.1884321 L13.1559734,13.348577 L2.74285773,14.9199573 C2.60080179,14.9419714 2.48059976,14.9988888 2.34568951,15.1164897 C2.18648935,15.2552639 2.08408086,15.4047646 2.04646158,15.5039837 C1.99169124,15.6831678 1.9854392,15.8489519 2.02717054,16.0357773 C2.06296544,16.1960261 2.1365346,16.3304982 2.27341618,16.4719136 L10.5807522,25.0544064 L10.4218271,26.043189 L8.65437352,37.0333445 C8.6272113,37.173654 8.64003562,37.2884793 8.70177973,37.431067 C8.78177753,37.6158084 8.88738375,37.7484448 9.03373002,37.8551893 C9.11556586,37.9143718 9.17917882,37.9464303 9.22803864,37.9608526 C9.31294249,37.9859144 9.41519787,38 9.54000583,38 C9.62258951,38 9.70668974,37.990346 9.79501997,37.9700669 C9.8009134,37.9687139 9.80669375,37.9662549 9.93650952,37.8878136 L20.0020885,32.3089657 L20.9727324,32.8492641 L30.0505023,37.9025027 C30.1183388,37.9414379 30.169084,37.9618258 30.20498,37.9700669 C30.2933103,37.990346 30.3774105,38 30.4599942,38 C30.5610232,38 30.6648615,37.9853712 30.7762485,37.9539868 C30.8317424,37.9383508 30.892839,37.9082935 30.9598312,37.8598653 C31.1126163,37.7484448 31.2182225,37.6158084 31.2982203,37.431067 C31.3599644,37.2884793 31.3727887,37.173654 31.3345152,36.9706084 L29.4192478,25.0544064 L37.7265838,16.4719136 C37.8634654,16.3304982 37.9370346,16.1960261 37.9728295,16.0357773 C38.0145608,15.8489519 38.0083088,15.6831678 37.9719337,15.5610866 C37.9059666,15.3663664 37.8152187,15.2318503 37.6826411,15.1205631 C37.5438148,15.0040307 37.4134775,14.9441843 37.264991,14.9211576 L25.7828004,13.1884321 L25.3295576,12.2155917 L20.7969822,2.48678229 C20.7238435,2.32726421 20.6326147,2.22254153 20.493481,2.13469913 C20.3475326,2.04255422 20.1977511,2 20,2 Z M20,0 C20.5724404,0 21.0928329,0.147847984 21.5611932,0.443548387 C22.0295534,0.73924879 22.3808184,1.14247056 22.6149985,1.65322581 L27.1424587,11.3709677 L37.563423,12.9435484 C38.0838234,13.024194 38.5521766,13.2392456 38.9684969,13.5887097 C39.3848171,13.9381738 39.6840428,14.3817177 39.866183,14.9193548 C40.022303,15.4301101 40.0418178,15.947578 39.9247277,16.4717742 C39.8076376,16.9959704 39.5539463,17.4596754 39.163646,17.8629032 L31.5528294,25.7258065 L33.3091717,36.6532258 C33.4132517,37.1908629 33.3547076,37.7150512 33.1335375,38.2258065 C32.9123673,38.7365617 32.5806171,39.1532242 32.1382768,39.4758065 C31.8780767,39.6639794 31.6048706,39.7983867 31.3186504,39.8790323 C31.0324302,39.9596778 30.7462143,40 30.4599942,40 C30.225814,40 29.9916374,39.9731185 29.7574572,39.9193548 C29.5232771,39.8655911 29.2891005,39.771506 29.0549203,39.6370968 L20,34.5967742 L10.9060498,39.6370968 C10.6978897,39.771506 10.4767229,39.8655911 10.2425428,39.9193548 C10.0083626,39.9731185 9.77418598,40 9.54000583,40 C9.22776564,40 8.93504485,39.9596778 8.66183468,39.8790323 C8.38862451,39.7983867 8.12192335,39.6639794 7.86172319,39.4758065 C7.41938291,39.1532242 7.08763268,38.7365617 6.86646255,38.2258065 C6.64529241,37.7150512 6.58674825,37.1908629 6.69082832,36.6532258 L8.44717062,25.7258065 L0.83635397,17.8629032 C0.446053728,17.4596754 0.192362377,16.9959704 0.0752723046,16.4717742 C-0.0418177678,15.947578 -0.0223030484,15.4301101 0.133817048,14.9193548 C0.315957161,14.4085996 0.615182857,13.971776 1.03150311,13.608871 C1.44782337,13.2459659 1.91617664,13.024194 2.43657696,12.9435484 L12.8575413,11.3709677 L17.3850015,1.65322581 C17.6191816,1.14247056 17.9704466,0.73924879 18.4388068,0.443548387 C18.9071671,0.147847984 19.4275596,0 20,0 Z" id="path-1"></path>
    </defs>
    <g id="Symbols" stroke="none" stroke-width="1" fill="none" fill-rule="evenodd">
        <g id="icons/STAR">
            <mask id="mask-2" fill="white">
                <use xlink:href="#path-1"></use>
            </mask>
            <use id="Mask" fill="#ffffff" fill-rule="nonzero" xlink:href="#path-1"></use>
        </g>
    </g>
</svg>