<?xml version="1.0" encoding="UTF-8"?>
<svg width="40px" height="40px" viewBox="0 0 40 40" version="1.1" xmlns="http://www.w3.org/2000/svg" xmlns:xlink="http://www.w3.org/1999/xlink">
    <g id="Symbols" stroke="none" stroke-width="1" fill="none" fill-rule="evenodd">
        <g id="icons/-message2" fill="#ffffff" fill-rule="nonzero">
            <path d="M32,10.9807692 L32,8.98076923 L8,8.98076923 L8,10.9807692 L32,10.9807692 Z M32,16.9903846 L32,14.9903846 L8,14.9903846 L8,16.9903846 L32,16.9903846 Z M32,23 L8,23 L8,21 L32,21 L32,23 Z M2,36.1715729 L7.15234211,31.0192308 L36.0576923,31.0192308 C36.5998851,31.0192308 37.0092744,30.8427699 37.4033792,30.432244 C37.8169436,30.0014478 38,29.5514342 38,28.9807692 L38,4.94230769 C38,4.38273363 37.8259194,3.96203882 37.4319403,3.56805972 C37.0379612,3.17408061 36.6172664,3 36.0576923,3 L3.94230769,3 C3.38273363,3 2.96203882,3.17408061 2.56805972,3.56805972 C2.17408061,3.96203882 2,4.38273363 2,4.94230769 L2,36.1715729 Z M36.0576923,1 C37.1474413,1 38.0769192,1.38461154 38.8461538,2.15384615 C39.6153885,2.92308077 40,3.85255865 40,4.94230769 L40,28.9807692 C40,30.0705183 39.6153885,31.0160216 38.8461538,31.8173077 C38.0769192,32.6185937 37.1474413,33.0192308 36.0576923,33.0192308 L7.98076923,33.0192308 L-2.77111667e-13,41 L-2.77111667e-13,4.94230769 C-2.77111667e-13,3.85255865 0.384611538,2.92308077 1.15384615,2.15384615 C1.92308077,1.38461154 2.85255865,1 3.94230769,1 L36.0576923,1 Z" id="Mask"></path>
        </g>
    </g>
</svg>