<?xml version="1.0" encoding="UTF-8"?>
<svg width="20px" height="20px" viewBox="0 0 20 20" version="1.1" xmlns="http://www.w3.org/2000/svg" xmlns:xlink="http://www.w3.org/1999/xlink">
    <!-- Generator: sketchtool 52.4 (67378) - http://www.bohemiancoding.com/sketch -->
    <title>1B05A9D0-298D-461B-B439-EB80FE382EDB</title>
    <desc>Created with sketchtool.</desc>
    <g id="Symbols" stroke="none" stroke-width="1" fill="none" fill-rule="evenodd">
        <g id="Menu/bars/Bottom/empty" transform="translate(-45.000000, -13.000000)" fill="#93929B" fill-rule="nonzero">
            <g id="icons/share/picturefile" transform="translate(45.000000, 13.000000)">
                <path d="M15.5,2 C14.119,2 13,3.119 13,4.5 C13,5.881 14.119,7 15.5,7 C16.881,7 18,5.881 18,4.5 C18,3.119 16.881,2 15.5,2 M15.5,3 C16.327,3 17,3.673 17,4.5 C17,5.327 16.327,6 15.5,6 C14.673,6 14,5.327 14,4.5 C14,3.673 14.673,3 15.5,3 M19,19 L18.12,19 L11.03,8.5 L10.3015,9.579 L8.53,6.5 L1.34,19 L1,19 L1,1 L19,1 L19,19 Z M15.7195,19 L14.5665,19 L5.1465,19 L10.2335,11.467 L10.8565,10.5445 L11.03,10.287 L16.913,19 L15.7195,19 Z M2.4935,19 L8.53,8.506 L9.678,10.502 L3.94,19 L2.4935,19 Z M19.5,0 L0.5,0 C0.2235,0 0,0.2235 0,0.5 L0,19.5 C0,19.7765 0.2235,20 0.5,20 L0.7645,20 L3.2645,20 L16.295,20 L18.795,20 L19.5,20 C19.7765,20 20,19.7765 20,19.5 L20,0.5 C20,0.2235 19.7765,0 19.5,0 Z" id="Fill-2"></path>
            </g>
        </g>
    </g>
</svg>