<?xml version="1.0" encoding="UTF-8"?>
<svg width="40px" height="40px" viewBox="0 0 40 40" version="1.1" xmlns="http://www.w3.org/2000/svg" xmlns:xlink="http://www.w3.org/1999/xlink">
    <!-- Generator: sketchtool 52.4 (67378) - http://www.bohemiancoding.com/sketch -->
    <title>83DE9753-8998-414B-98E2-47BDAA339562</title>
    <desc>Created with sketchtool.</desc>
    <g id="Symbols" stroke="none" stroke-width="1" fill="none" fill-rule="evenodd">
        <g id="icons/STAR-FILLE" fill="#e7c581" fill-rule="nonzero">
            <path d="M20,0 C20.5724404,0 21.0928329,0.147847984 21.5611932,0.443548387 C22.0295534,0.73924879 22.3808184,1.14247056 22.6149985,1.65322581 L27.1424587,11.3709677 L37.563423,12.9435484 C38.0838234,13.024194 38.5521766,13.2392456 38.9684969,13.5887097 C39.3848171,13.9381738 39.6840428,14.3817177 39.866183,14.9193548 C40.022303,15.4301101 40.0418178,15.947578 39.9247277,16.4717742 C39.8076376,16.9959704 39.5539463,17.4596754 39.163646,17.8629032 L31.5528294,25.7258065 L33.3091717,36.6532258 C33.4132517,37.1908629 33.3547076,37.7150512 33.1335375,38.2258065 C32.9123673,38.7365617 32.5806171,39.1532242 32.1382768,39.4758065 C31.8780767,39.6639794 31.6048706,39.7983867 31.3186504,39.8790323 C31.0324302,39.9596778 30.7462143,40 30.4599942,40 C30.225814,40 29.9916374,39.9731185 29.7574572,39.9193548 C29.5232771,39.8655911 29.2891005,39.771506 29.0549203,39.6370968 L20,34.5967742 L10.9060498,39.6370968 C10.6978897,39.771506 10.4767229,39.8655911 10.2425428,39.9193548 C10.0083626,39.9731185 9.77418598,40 9.54000583,40 C9.22776564,40 8.93504485,39.9596778 8.66183468,39.8790323 C8.38862451,39.7983867 8.12192335,39.6639794 7.86172319,39.4758065 C7.41938291,39.1532242 7.08763268,38.7365617 6.86646255,38.2258065 C6.64529241,37.7150512 6.58674825,37.1908629 6.69082832,36.6532258 L8.44717062,25.7258065 L0.83635397,17.8629032 C0.446053728,17.4596754 0.192362377,16.9959704 0.0752723046,16.4717742 C-0.0418177678,15.947578 -0.0223030484,15.4301101 0.133817048,14.9193548 C0.315957161,14.4085996 0.615182857,13.971776 1.03150311,13.608871 C1.44782337,13.2459659 1.91617664,13.024194 2.43657696,12.9435484 L12.8575413,11.3709677 L17.3850015,1.65322581 C17.6191816,1.14247056 17.9704466,0.73924879 18.4388068,0.443548387 C18.9071671,0.147847984 19.4275596,0 20,0 Z" id="Path"></path>
        </g>
    </g>
</svg>