<?xml version="1.0" encoding="UTF-8"?>
<svg width="40px" height="40px" viewBox="0 0 40 40" version="1.1" xmlns="http://www.w3.org/2000/svg" xmlns:xlink="http://www.w3.org/1999/xlink">
    <!-- Generator: sketchtool 52.4 (67378) - http://www.bohemiancoding.com/sketch -->
    <title>A286DC85-38EA-4A9C-A7A9-A78E67DEB73F</title>
    <desc>Created with sketchtool.</desc>
    <g id="Symbols" stroke="none" stroke-width="1" fill="none" fill-rule="evenodd">
        <g id="icons/VOICE" fill="#93929B" fill-rule="nonzero">
            <path d="M19.9961,0.0001 C18.9401,0.0001 17.9481,0.2951 17.0201,0.8841 C16.0921,1.4741 15.3561,2.2711 14.8121,3.2761 C14.2681,4.2811 13.9961,5.3551 13.9961,6.5001 L13.9961,19.5001 C13.9961,20.6441 14.2681,21.7191 14.8121,22.7241 C15.3561,23.7291 16.0921,24.5261 17.0201,25.1161 C17.9481,25.7051 18.9401,26.0001 19.9961,26.0001 C21.0521,26.0001 22.0441,25.7051 22.9721,25.1161 C23.9001,24.5261 24.6361,23.7291 25.1801,22.7241 C25.7241,21.7191 25.9961,20.6441 25.9961,19.5001 L25.9961,6.5001 C25.9961,5.3551 25.7241,4.2811 25.1801,3.2761 C24.6361,2.2711 23.9001,1.4741 22.9721,0.8841 C22.0441,0.2951 21.0521,0.0001 19.9961,0.0001 M19.9961,2.0001 C20.6711,2.0001 21.2941,2.1881 21.9001,2.5721 C22.5411,2.9791 23.0391,3.5211 23.4211,4.2281 C23.8081,4.9421 23.9961,5.6861 23.9961,6.5001 L23.9961,19.5001 C23.9961,20.3131 23.8081,21.0571 23.4211,21.7721 C23.0391,22.4791 22.5411,23.0211 21.9001,23.4281 C21.2941,23.8121 20.6711,24.0001 19.9961,24.0001 C19.3211,24.0001 18.6981,23.8121 18.0921,23.4281 C17.4511,23.0211 16.9531,22.4791 16.5711,21.7721 C16.1841,21.0571 15.9961,20.3131 15.9961,19.5001 L15.9961,6.5001 C15.9961,5.6861 16.1841,4.9421 16.5711,4.2281 C16.9531,3.5211 17.4511,2.9791 18.0921,2.5721 C18.6981,2.1881 19.3211,2.0001 19.9961,2.0001 Z M34.9824,19.1622 C34.9614,19.2872 32.8134,31.3182 20.9964,31.9672 L20.9964,39.9982 L18.9964,39.9982 L18.9964,31.9492 C8.7814,31.4442 5.3604,23.4082 5.0004,19.0812 L6.9924,18.9132 L6.9924,18.9152 C7.0354,19.3962 8.1164,29.9982 19.9964,29.9982 C31.0224,29.9982 32.9334,19.2892 33.0094,18.8342 L34.9824,19.1622 Z" id="Fill-3"></path>
        </g>
    </g>
</svg>