<?xml version="1.0" encoding="UTF-8"?>
<svg width="382px" height="597px" viewBox="0 0 382 597" version="1.1" xmlns="http://www.w3.org/2000/svg" xmlns:xlink="http://www.w3.org/1999/xlink">
    <!-- Generator: sketchtool 52.4 (67378) - http://www.bohemiancoding.com/sketch -->
    <title>AF4CDA02-5119-4987-AD15-54E9E1A9776F</title>
    <desc>Created with sketchtool.</desc>
    <defs>
        <polygon id="path-1" points="0.433489164 0.0653543015 180.890581 0.0653543015 180.890581 27.9273961 0.433489164 27.9273961"></polygon>
    </defs>
    <g id="Symbols" stroke="none" stroke-width="1" fill="none" fill-rule="evenodd" opacity="0.456705729">
        <g id="Background/chats" transform="translate(6.000000, -72.000000)">
            <g id="Background/first" transform="translate(-6.000000, 72.000000)">
                <g id="YOHO_BG_MAIN">
                    <polygon id="Fill-1" fill="#FFFFFF" points="90.1451292 596.759692 380.457883 596.759692 380.457883 0.468835833 90.1451292 0.468835833"></polygon>
                    <polygon id="Fill-2" fill="#6ECEF5" points="0.145129225 596.759692 381.457883 596.759692 381.457883 278.202942 0.145129225 278.202942"></polygon>
                    <g id="Group-346" transform="translate(1.000000, 23.844681)">
                        <path d="M94.9536286,26.8671806 C98.6499495,11.4557111 112.531132,-7.10542736e-15 129.090593,-7.10542736e-15 C145.799904,0.000406122157 159.782244,11.6640907 163.325396,27.2865531 C165.005022,26.9352784 166.745941,26.7505946 168.530042,26.7505946 C182.487441,26.7505946 193.80221,38.0544857 193.80221,51.9984644 C193.80221,65.9424431 182.487441,77.2463342 168.530042,77.2463342 L92.509079,77.2464755 C78.5512877,77.2462714 67.2365805,65.9424044 67.2365805,51.9984644 C67.2365805,38.0544857 78.5513505,26.7505946 92.5092205,26.7505946 C93.3338437,26.7505946 94.1492426,26.7900522 94.9536286,26.8671806 Z" id="Fill-10" fill="#FBB139"></path>
                        <path d="M27.7170481,128.002452 C31.413369,112.590983 45.2945515,101.135272 61.8540128,101.135272 C78.5633235,101.135678 92.5456637,112.799362 96.0888159,128.421825 C97.7684417,128.07055 99.5093601,127.885866 101.293462,127.885866 C115.25086,127.885866 126.56563,139.189758 126.56563,153.133736 C126.56563,167.077715 115.25086,178.381606 101.293462,178.381606 L25.2724985,178.381747 C11.3147071,178.381543 0,167.077676 0,153.133736 C0,139.189758 11.3147699,127.885866 25.27264,127.885866 C26.0972632,127.885866 26.9126621,127.925324 27.7170481,128.002452 Z" id="Fill-10-Copy" fill="#FBB139"></path>
                        <path d="M322.426915,76.9189289 C322.426915,83.6131506 316.994977,89.0398665 310.294312,89.0398665 C303.593648,89.0398665 298.161709,83.6131506 298.161709,76.9189289 C298.161709,70.2247071 303.593648,64.7979912 310.294312,64.7979912 C316.994977,64.7979912 322.426915,70.2247071 322.426915,76.9189289" id="Fill-11" fill="#FBB139"></path>
                        <path d="M358.922449,76.9189289 C358.922449,83.6131506 353.49051,89.0398665 346.789846,89.0398665 C340.089181,89.0398665 334.657243,83.6131506 334.657243,76.9189289 C334.657243,70.2247071 340.089181,64.7979912 346.789846,64.7979912 C353.49051,64.7979912 358.922449,70.2247071 358.922449,76.9189289" id="Fill-13" fill="#FBB139"></path>
                        <path d="M344.707768,68.791483 C344.707768,78.0895106 337.162858,85.6271657 327.855882,85.6266945 C318.549378,85.6266945 311.004469,78.0895106 311.004469,68.791483 C311.004469,59.4934554 318.549378,51.9558003 327.855882,51.9558003 C337.162858,51.9558003 344.707768,59.4934554 344.707768,68.791483" id="Fill-15" fill="#FBB139"></path>
                        <path d="M310.294359,89.0398194 L346.789799,89.0398194 L349.582882,77.6793853 L341.239949,71.725877 L331.225505,70.2797894 C331.225505,70.2797894 326.985414,69.0042732 322.278866,71.8106915 C317.572789,74.617581 319.538135,73.2567791 319.538135,73.2567791 L311.915876,79.9759741" id="Fill-17" fill="#FBB139"></path>
                        <polygon id="Fill-19" fill="#5CCAEF" points="320.227822 529.243447 198.01793 512.976964 95.7378811 529.243447 89.1452236 529.631709 89.1452236 534.343627 203.336674 550.284046 255.304436 537.848352 369.549654 537.279623"></polygon>
                        <polygon id="Fill-33" fill="#90BFD2" points="313.658888 341.830917 317.946615 323.296117 324.201575 318.736865 323.02482 343.404227"></polygon>
                        <polygon id="Fill-35" fill="#C6E9FA" points="323.025008 343.404415 337.176725 342.142564 331.07788 320.007858 324.201292 318.737054"></polygon>
                        <g id="Group-39" transform="translate(198.566831, 374.551606)">
                            <mask id="mask-2" fill="white">
                                <use xlink:href="#path-1"></use>
                            </mask>
                            <g id="Clip-38"></g>
                            <path d="M27.8459837,10.7717742 L0.433489164,15.9737316 L70.9779433,17.6695508 C70.9779433,17.6695508 36.3624823,22.4031436 37.3538806,22.318329 C38.345279,22.2339857 85.5253699,22.318329 85.5253699,22.318329 L106.974382,27.9273961 L173.103765,17.6695508 L180.890628,13.2346937 L173.103765,10.7717742 L91.7204305,0.0653543015 L28.4001669,9.34076472" id="Fill-37" fill="#5CCAEF" mask="url(#mask-2)"></path>
                        </g>
                        <polygon id="Fill-40" fill="#E1F3FC" points="259.447132 343.363374 272.480106 341.666613 298.234296 343.759175 302.348929 345.264162 308.419004 344.586588 308.419004 344.586588 308.419004 344.586588 330.15902 342.15995 343.379709 350.50193 351.890076 384.638362 301.445728 392.221251 267.895242 382.823331 259.476374 385.323475 226.412626 385.323475"></polygon>
                        <polygon id="Fill-42" fill="#E1F3FC" points="347.976694 348.622393 360.22202 362.193188 371.670737 385.323522 342.714076 386.44166"></polygon>
                        <polygon id="Fill-44" fill="#FFFFFF" points="272.4802 341.666566 308.419098 344.586541 317.652969 343.177206 354.65071 341.666566 351.89017 384.638315 259.476469 385.323427 226.41272 385.323427 241.76666 345.665099"></polygon>
                        <polygon id="Fill-46" fill="#DFF2FC" points="303.80221 382.823425 321.421933 374.057373 291.660174 362.505635 299.614 348.62244 306.843378 350.42522 317.653016 343.176877 352.427422 341.757176 349.813092 350.657517 360.221831 362.193235 371.670548 385.323569 301.44587 392.221345 268.3043 385.323569 267.835485 376.098576"></polygon>
                        <polygon id="Fill-48" fill="#C6E9FA" points="319.85593 363.245218 307.965752 357.22857 318.502308 357.22857 335.013665 348.622252 331.961649 342.592881 352.42728 341.757458 348.326324 355.605314 358.321431 371.995249 352.454164 385.32338 322.713157 389.242754 327.469227 376.516335 335.743772 372.515916 343.401405 363.494949"></polygon>
                        <polygon id="Fill-50" fill="#DFF2FC" points="273.059805 347.442387 282.089454 360.619266 273.059805 369.021087 274.902523 358.231737"></polygon>
                        <polygon id="Fill-52" fill="#C6E9FA" points="258.682973 369.705493 268.421976 385.323616 259.262625 383.610834"></polygon>
                        <path d="M242.384327,336.519408 C247.879938,333.835499 275.060854,329.934502 287.402868,332.860132 C299.744881,335.786233 318.592298,333.957538 328.267157,332.982171 C337.941545,332.006804 359.877766,331.136984 361.052163,339.192008 C361.052163,339.192008 361.028109,339.194835 360.986132,339.199547 C361.027637,339.407813 361.052163,339.621263 361.052163,339.840839 C361.052163,341.797698 359.328771,343.384672 357.203066,343.384672 C356.254115,343.384672 355.386288,343.066618 354.715609,342.542181 C354.09681,343.736652 352.776675,344.564536 351.243356,344.564536 C350.227904,344.564536 349.307252,344.199834 348.619593,343.608488 C347.931935,344.199834 347.011283,344.564536 345.995831,344.564536 C344.873315,344.564536 343.866352,344.11926 343.162658,343.413415 C342.458963,344.11926 341.452,344.564536 340.329485,344.564536 C339.740871,344.564536 339.184802,344.439199 338.685801,344.221509 C337.991067,345.14316 336.834593,345.74817 335.523419,345.74817 C334.800387,345.74817 334.126406,345.561578 333.548641,345.24211 C332.870886,346.252817 331.660645,346.928506 330.275894,346.928506 C328.766629,346.928506 327.463945,346.126537 326.832884,344.961751 C326.17258,345.453204 325.333052,345.74817 324.41806,345.74817 C323.249795,345.74817 322.205572,345.267083 321.499519,344.510821 C320.833556,345.567233 319.594072,346.279675 318.172062,346.279675 C317.035868,346.279675 316.018058,345.823561 315.31342,345.102637 C314.656418,346.19109 313.396182,346.928506 311.948231,346.928506 C310.872408,346.928506 309.900819,346.520925 309.202312,345.865968 C308.504277,346.520925 307.532688,346.928506 306.456865,346.928506 C305.248981,346.928506 304.172687,346.415378 303.466634,345.614352 C302.761053,346.415378 301.684758,346.928506 300.476875,346.928506 C299.606217,346.928506 298.805835,346.658984 298.161096,346.209938 C297.516357,346.658984 296.715975,346.928506 295.844846,346.928506 C294.564329,346.928506 293.432852,346.349882 292.733403,345.464042 C292.033481,346.349882 290.902004,346.928506 289.621487,346.928506 C288.216456,346.928506 286.99065,346.233027 286.319027,345.197818 C285.619105,345.863612 284.63997,346.279675 283.554242,346.279675 C282.412861,346.279675 281.390806,345.819791 280.686168,345.093214 C279.981529,345.819791 278.959474,346.279675 277.818564,346.279675 C277.491242,346.279675 277.175712,346.237738 276.872916,346.16706 C276.446548,347.697019 274.943415,348.829293 273.148805,348.829293 C271.381078,348.829293 269.895395,347.730474 269.444031,346.235383 C269.254901,346.261298 269.062942,346.279675 268.865794,346.279675 C267.91873,346.279675 267.053261,345.963034 266.382582,345.440953 C265.684547,346.339987 264.544108,346.928506 263.252272,346.928506 C262.198616,346.928506 261.244478,346.537416 260.549273,345.906019 C259.843692,346.65757 258.80277,347.135359 257.63875,347.135359 C256.766678,347.135359 255.965353,346.865366 255.320142,346.415378 C254.674459,346.865366 253.873134,347.135359 253.001534,347.135359 C252.048339,347.135359 251.178153,346.814948 250.506059,346.286742 C249.848585,347.37284 248.589764,348.10837 247.143699,348.10837 C245.915535,348.10837 244.824148,347.576394 244.11951,346.751809 C243.597399,346.995415 243.009257,347.135359 242.384327,347.135359 C240.258622,347.135359 238.535702,345.548856 238.535702,343.591525 C238.535702,343.591525 236.888716,339.203316 242.384327,336.519408" id="Fill-54" fill="#FFFFFF"></path>
                        <path d="M242.384327,334.742968 C247.879938,332.059059 275.060854,328.158062 287.402868,331.083692 C299.744881,334.009793 318.592298,332.181098 328.267157,331.205731 C337.941545,330.230364 359.877766,329.360544 361.052163,337.415567 C361.052163,337.415567 361.028109,337.418395 360.986132,337.423107 C361.027637,337.631373 361.052163,337.844823 361.052163,338.064399 C361.052163,340.021258 359.328771,341.608232 357.203066,341.608232 C356.254115,341.608232 355.386288,341.290178 354.715609,340.765741 C354.09681,341.960212 352.776675,342.788096 351.243356,342.788096 C350.227904,342.788096 349.307252,342.423394 348.619593,341.832048 C347.931935,342.423394 347.011283,342.788096 345.995831,342.788096 C344.873315,342.788096 343.866352,342.34282 343.162658,341.636975 C342.458963,342.34282 341.452,342.788096 340.329485,342.788096 C339.740871,342.788096 339.184802,342.662759 338.685801,342.445069 C337.991067,343.367191 336.834593,343.97173 335.523419,343.97173 C334.800387,343.97173 334.126406,343.785138 333.548641,343.46567 C332.870886,344.476376 331.660645,345.152065 330.275894,345.152065 C328.766629,345.152065 327.463945,344.350097 326.832884,343.185311 C326.17258,343.676764 325.333052,343.97173 324.41806,343.97173 C323.249795,343.97173 322.205572,343.490643 321.499519,342.73438 C320.833556,343.790792 319.594072,344.503234 318.172062,344.503234 C317.035868,344.503234 316.018058,344.047121 315.31342,343.326197 C314.656418,344.41465 313.396182,345.152065 311.948231,345.152065 C310.872408,345.152065 309.900819,344.744485 309.202312,344.089528 C308.504277,344.744485 307.532688,345.152065 306.456865,345.152065 C305.248981,345.152065 304.172687,344.638938 303.466634,343.837912 C302.761053,344.638938 301.684758,345.152065 300.476875,345.152065 C299.606217,345.152065 298.805835,344.882544 298.161096,344.433498 C297.516357,344.882544 296.715975,345.152065 295.844846,345.152065 C294.564329,345.152065 293.432852,344.573442 292.733403,343.687601 C292.033481,344.573442 290.902004,345.152065 289.621487,345.152065 C288.216456,345.152065 286.99065,344.456586 286.319027,343.421378 C285.619105,344.087172 284.63997,344.503234 283.554242,344.503234 C282.412861,344.503234 281.390806,344.043351 280.686168,343.316773 C279.981529,344.043351 278.959474,344.503234 277.818564,344.503234 C277.491242,344.503234 277.175712,344.461298 276.872916,344.39062 C276.446548,345.920579 274.943415,347.053324 273.148805,347.053324 C271.381078,347.053324 269.895395,345.954034 269.444031,344.458942 C269.254901,344.485329 269.062942,344.503234 268.865794,344.503234 C267.91873,344.503234 267.053261,344.186593 266.382582,343.664513 C265.684547,344.563547 264.544108,345.152065 263.252272,345.152065 C262.198616,345.152065 261.244478,344.760976 260.549273,344.129579 C259.843692,344.88113 258.80277,345.358919 257.63875,345.358919 C256.766678,345.358919 255.965353,345.088926 255.320142,344.638938 C254.674459,345.088926 253.873134,345.358919 253.001534,345.358919 C252.048339,345.358919 251.178153,345.038508 250.506059,344.510302 C249.848585,345.596399 248.589764,346.33193 247.143699,346.33193 C245.915535,346.33193 244.824148,345.800425 244.11951,344.975369 C243.597399,345.218975 243.009257,345.358919 242.384327,345.358919 C240.258622,345.358919 238.535702,343.772416 238.535702,341.815085 C238.535702,341.815085 236.888716,337.426876 242.384327,334.742968" id="Fill-56" fill="#DFF2FC"></path>
                        <path d="M345.202618,348.979415 C345.202618,349.501024 345.626155,349.924155 346.148267,349.924155 C346.67085,349.924155 347.093915,349.501024 347.093915,348.979415 C347.093915,348.457806 346.67085,348.034675 346.148267,348.034675 C345.626155,348.034675 345.202618,348.457806 345.202618,348.979415" id="Fill-58" fill="#FFFFFF"></path>
                        <path d="M335.073753,348.644162 C335.073753,348.981064 335.346835,349.253884 335.684062,349.253884 C336.020816,349.253884 336.293899,348.981064 336.293899,348.644162 C336.293899,348.307731 336.020816,348.03444 335.684062,348.03444 C335.346835,348.03444 335.073753,348.307731 335.073753,348.644162" id="Fill-60" fill="#FFFFFF"></path>
                        <path d="M344.568679,360.817261 C344.568679,361.749749 345.325198,362.505541 346.258584,362.505541 C347.19197,362.505541 347.948489,361.749749 347.948489,360.817261 C347.948489,359.884772 347.19197,359.12898 346.258584,359.12898 C345.325198,359.12898 344.568679,359.884772 344.568679,360.817261" id="Fill-62" fill="#FFFFFF"></path>
                        <path d="M316.158419,349.954735 C316.158419,350.342055 316.472535,350.655868 316.860228,350.655868 C317.247448,350.655868 317.562036,350.342055 317.562036,349.954735 C317.562036,349.567415 317.247448,349.253602 316.860228,349.253602 C316.472535,349.253602 316.158419,349.567415 316.158419,349.954735" id="Fill-64" fill="#FFFFFF"></path>
                        <path d="M290.287073,356.416376 C290.287073,357.174053 290.901627,357.788016 291.660032,357.788016 C292.417966,357.788016 293.032992,357.174053 293.032992,356.416376 C293.032992,355.6587 292.417966,355.044737 291.660032,355.044737 C290.901627,355.044737 290.287073,355.6587 290.287073,356.416376" id="Fill-66" fill="#DFF2FC"></path>
                        <path d="M306.51766,353.634649 C306.51766,354.034219 306.84168,354.357928 307.241635,354.357928 C307.641591,354.357928 307.965611,354.034219 307.965611,353.634649 C307.965611,353.235078 307.641591,352.911369 307.241635,352.911369 C306.84168,352.911369 306.51766,353.235078 306.51766,353.634649" id="Fill-68" fill="#FFFFFF"></path>
                        <path d="M356.876168,366.221972 C356.876168,366.6206 357.199717,366.943838 357.598729,366.943838 C357.997741,366.943838 358.321289,366.6206 358.321289,366.221972 C358.321289,365.823344 357.997741,365.500106 357.598729,365.500106 C357.199717,365.500106 356.876168,365.823344 356.876168,366.221972" id="Fill-70" fill="#FFFFFF"></path>
                        <path d="M356.002681,347.668795 C356.002681,348.544269 356.712979,349.253884 357.589296,349.253884 C358.465141,349.253884 359.175439,348.544269 359.175439,347.668795 C359.175439,346.793321 358.465141,346.083706 357.589296,346.083706 C356.712979,346.083706 356.002681,346.793321 356.002681,347.668795" id="Fill-72" fill="#FFFFFF"></path>
                        <path d="M360.273901,344.377049 C360.273901,344.71348 360.546983,344.986771 360.88421,344.986771 C361.220965,344.986771 361.494047,344.71348 361.494047,344.377049 C361.494047,344.040147 361.220965,343.767327 360.88421,343.767327 C360.546983,343.767327 360.273901,344.040147 360.273901,344.377049" id="Fill-74" fill="#FFFFFF"></path>
                        <path d="M363.507831,341.05477 C363.507831,341.206494 363.63093,341.329004 363.782329,341.329004 C363.934198,341.329004 364.056826,341.206494 364.056826,341.05477 C364.056826,340.903046 363.934198,340.780537 363.782329,340.780537 C363.63093,340.780537 363.507831,340.903046 363.507831,341.05477" id="Fill-76" fill="#FFFFFF"></path>
                        <path d="M235.188482,348.135935 C235.188482,348.519014 235.516276,348.829529 235.920476,348.829529 C236.325148,348.829529 236.652941,348.519014 236.652941,348.135935 C236.652941,347.752856 236.325148,347.44234 235.920476,347.44234 C235.516276,347.44234 235.188482,347.752856 235.188482,348.135935" id="Fill-78" fill="#FFFFFF"></path>
                        <path d="M235.920712,343.408279 C235.920712,343.791358 236.248505,344.101873 236.652705,344.101873 C237.057377,344.101873 237.38517,343.791358 237.38517,343.408279 C237.38517,343.0252 237.057377,342.714685 236.652705,342.714685 C236.248505,342.714685 235.920712,343.0252 235.920712,343.408279" id="Fill-80" fill="#FFFFFF"></path>
                        <path d="M355.149852,341.345119 C355.149852,341.908664 355.606877,342.365249 356.170964,342.365249 C356.735052,342.365249 357.192548,341.908664 357.192548,341.345119 C357.192548,340.781573 356.735052,340.324988 356.170964,340.324988 C355.606877,340.324988 355.149852,340.781573 355.149852,341.345119" id="Fill-82" fill="#C6E9FA"></path>
                        <path d="M304.199005,338.281147 C304.199005,339.02186 304.799881,339.622159 305.541307,339.622159 C306.282733,339.622159 306.88361,339.02186 306.88361,338.281147 C306.88361,337.540433 306.282733,336.940135 305.541307,336.940135 C304.799881,336.940135 304.199005,337.540433 304.199005,338.281147" id="Fill-84" fill="#C6E9FA"></path>
                        <path d="M320.734699,336.932973 C320.734699,337.471545 321.171914,337.90834 321.711005,337.90834 C322.250095,337.90834 322.68731,337.471545 322.68731,336.932973 C322.68731,336.394401 322.250095,335.957606 321.711005,335.957606 C321.171914,335.957606 320.734699,336.394401 320.734699,336.932973" id="Fill-86" fill="#C6E9FA"></path>
                        <path d="M275.215837,336.848629 C275.215837,337.134643 275.447887,337.36694 275.734647,337.36694 C276.020936,337.36694 276.252985,337.134643 276.252985,336.848629 C276.252985,336.562616 276.020936,336.330319 275.734647,336.330319 C275.447887,336.330319 275.215837,336.562616 275.215837,336.848629" id="Fill-88" fill="#C6E9FA"></path>
                        <path d="M260.510645,334.471278 C260.510645,334.791218 260.77005,335.050373 261.090297,335.050373 C261.410544,335.050373 261.669949,334.791218 261.669949,334.471278 C261.669949,334.151339 261.410544,333.892184 261.090297,333.892184 C260.77005,333.892184 260.510645,334.151339 260.510645,334.471278" id="Fill-90" fill="#C6E9FA"></path>
                        <path d="M341.785689,336.932973 C341.785689,337.471545 342.222905,337.90834 342.761995,337.90834 C343.301086,337.90834 343.738301,337.471545 343.738301,336.932973 C343.738301,336.394401 343.301086,335.957606 342.761995,335.957606 C342.222905,335.957606 341.785689,336.394401 341.785689,336.932973" id="Fill-92" fill="#C6E9FA"></path>
                        <path d="M273.059805,344.631069 C273.059805,345.512197 273.774819,346.226053 274.656324,346.226053 C275.538301,346.226053 276.253315,345.512197 276.253315,344.631069 C276.253315,343.74994 275.538301,343.036084 274.656324,343.036084 C273.774819,343.036084 273.059805,343.74994 273.059805,344.631069" id="Fill-94" fill="#C6E9FA"></path>
                        <path d="M250.198735,341.849482 C250.198735,341.950317 250.280801,342.032305 250.381733,342.032305 C250.482665,342.032305 250.564731,341.950317 250.564731,341.849482 C250.564731,341.748647 250.482665,341.66666 250.381733,341.66666 C250.280801,341.66666 250.198735,341.748647 250.198735,341.849482" id="Fill-96" fill="#C6E9FA"></path>
                        <path d="M244.768211,337.305827 C244.768211,337.844399 245.205426,338.281194 245.744517,338.281194 C246.283607,338.281194 246.720822,337.844399 246.720822,337.305827 C246.720822,336.767255 246.283607,336.33046 245.744517,336.33046 C245.205426,336.33046 244.768211,336.767255 244.768211,337.305827" id="Fill-98" fill="#C6E9FA"></path>
                        <path d="M285.156799,335.413945 C285.156799,335.413945 280.890767,336.191411 279.069745,336.401563 C277.249194,336.611714 277.041199,339.193845 278.393877,339.384207 C279.746084,339.574097 282.867904,338.794746 289.994936,340.665848 C297.122439,342.536951 307.995277,341.284523 313.301758,340.299732 C318.608239,339.31447 317.984253,337.126727 315.902882,336.401563 C313.821983,335.675927 305.966259,335.413945 305.966259,335.413945 L291.503729,333.647447 L285.728904,335.413945 L285.156799,335.413945 Z" id="Fill-100" fill="#C6E9FA"></path>
                        <path d="M299.151599,276.510117 C299.151599,276.510117 295.366174,273.512395 290.111102,276.165676 C284.856502,278.819428 283.676446,283.346639 286.14315,287.705163 C286.14315,287.705163 282.021914,297.572862 280.757905,301.810761 C279.493895,306.04866 278.969426,326.152058 291.564713,329.397155 C304.16,332.642724 308.664212,330.841358 311.881776,325.437731 C315.098868,320.034574 319.388954,306.684769 316.600587,301.493177 C313.81222,296.301586 312.89487,287.835212 312.89487,287.835212 C312.89487,287.835212 314.950772,279.964425 311.518609,276.544986 C308.086918,273.125547 299.151599,276.510117 299.151599,276.510117" id="Fill-102" fill="#FFFFFF"></path>
                        <path d="M299.151646,270.358096 L299.151174,334.595202 C299.151174,334.595202 303.049322,330.782789 303.61058,331.070687 C304.171838,331.358585 312.448741,328.241181 312.448741,328.241181 C312.448741,328.241181 323.575324,306.009409 311.363485,291.098545 C311.363485,291.098545 319.097524,278.897976 307.292715,273.611675 C295.487905,268.324904 302.29186,273.882611 302.29186,273.882611 L299.151646,270.358096 Z" id="Fill-104" fill="#EAEAE9"></path>
                        <path d="M314.891203,314.685228 C312.177356,330.138905 303.086393,329.935351 299.151457,329.935351 C295.216521,329.935351 286.125086,330.138905 283.411711,314.685228 C281.291666,302.613766 287.409848,293.354847 290.189725,289.880279 C287.621145,288.738581 285.827478,286.171057 285.827478,283.181345 C285.827478,279.131452 289.113902,275.848187 293.168165,275.848187 C295.640058,275.848187 297.821417,277.072815 299.151457,278.943446 C300.481497,277.072815 302.663328,275.848187 305.135221,275.848187 C309.189012,275.848187 312.475436,279.131452 312.475436,283.181345 C312.475436,286.171057 310.682241,288.738581 308.113189,289.880279 C310.893066,293.354847 317.011248,302.613766 314.891203,314.685228 M314.556335,291.088415 C315.210978,289.317676 315.5699,287.403224 315.5699,285.404899 C315.5699,276.346237 308.219309,269.002713 299.151457,269.002713 C290.084077,269.002713 282.733485,276.346237 282.733485,285.404899 C282.733485,287.403224 283.091936,289.317676 283.747051,291.088415 C281.181772,294.948418 277.478885,302.768317 278.662715,314.685228 C280.426197,332.443033 288.838933,336.916528 299.151457,336.916528 C309.463509,336.916528 317.876246,332.443033 319.640199,314.685228 C320.824029,302.768317 317.121142,294.948418 314.556335,291.088415" id="Fill-106" fill="#21232F"></path>
                        <path d="M282.394042,294.622777 C282.394042,294.622777 272.796533,305.825833 274.388335,318.548483 C274.863282,322.344404 275.067033,310.008603 281.24087,304.586128 L282.394042,294.622777 Z" id="Fill-108" fill="#21232F"></path>
                        <path d="M315.775679,294.384166 C315.775679,294.384166 325.373189,305.587222 323.780914,318.309871 C323.306439,322.105792 323.102688,309.769991 316.928852,304.347516 L315.775679,294.384166 Z" id="Fill-110" fill="#21232F"></path>
                        <path d="M289.485134,331.070687 C285.588401,331.070687 282.429321,334.22673 282.429321,338.119716 L296.540948,338.119716 C296.540948,334.22673 293.381868,331.070687 289.485134,331.070687" id="Fill-112" fill="#FBB139"></path>
                        <path d="M308.817591,331.070687 C304.920858,331.070687 301.761778,334.22673 301.761778,338.119716 L315.873404,338.119716 C315.873404,334.22673 312.714324,331.070687 308.817591,331.070687" id="Fill-114" fill="#FBB139"></path>
                        <path d="M297.124844,282.947964 C297.124844,284.455778 295.901397,285.678049 294.392132,285.678049 C292.883339,285.678049 291.659891,284.455778 291.659891,282.947964 C291.659891,281.44015 292.883339,280.217879 294.392132,280.217879 C295.901397,280.217879 297.124844,281.44015 297.124844,282.947964" id="Fill-116" fill="#FBB139"></path>
                        <path d="M296.144813,282.947964 C296.144813,283.914849 295.359995,284.698913 294.392179,284.698913 C293.424363,284.698913 292.639545,283.914849 292.639545,282.947964 C292.640017,281.981078 293.424363,281.197015 294.392179,281.197015 C295.359995,281.197015 296.144813,281.981078 296.144813,282.947964" id="Fill-118" fill="#21232F"></path>
                        <path d="M293.921005,281.78101 C293.921005,282.190005 293.588967,282.521724 293.179579,282.521724 C292.770191,282.521724 292.438153,282.190005 292.438153,281.78101 C292.438153,281.372016 292.770191,281.040297 293.179579,281.040297 C293.588967,281.040297 293.921005,281.372016 293.921005,281.78101" id="Fill-120" fill="#FFFFFF"></path>
                        <path d="M306.553741,282.947964 C306.553741,284.455778 305.330293,285.678049 303.821028,285.678049 C302.312235,285.678049 301.088787,284.455778 301.088787,282.947964 C301.088787,281.44015 302.312235,280.217879 303.821028,280.217879 C305.330293,280.217879 306.553741,281.44015 306.553741,282.947964" id="Fill-122" fill="#FBB139"></path>
                        <path d="M305.573709,282.947964 C305.573709,283.914849 304.788891,284.698913 303.821075,284.698913 C302.853259,284.698913 302.068442,283.914849 302.068913,282.947964 C302.068913,281.981078 302.853259,281.197015 303.821075,281.197015 C304.788891,281.197015 305.573709,281.981078 305.573709,282.947964" id="Fill-124" fill="#21232F"></path>
                        <path d="M303.349902,281.78101 C303.349902,282.190005 303.017863,282.521724 302.608475,282.521724 C302.199087,282.521724 301.867049,282.190005 301.867049,281.78101 C301.867049,281.372016 302.199087,281.040297 302.608475,281.040297 C303.017863,281.040297 303.349902,281.372016 303.349902,281.78101" id="Fill-126" fill="#FFFFFF"></path>
                        <path d="M298.988362,291.132424 L295.745329,289.809789 L298.907711,289.809789 L299.151551,289.809789 L299.17136,289.809789 L299.17136,287.428856 C299.164286,287.4265 299.158154,287.424144 299.151551,287.421789 C294.520466,288.979549 294.892123,289.809789 295.033617,289.809789 L295.240197,289.809789 C295.137378,290.552858 295.293021,293.532675 299.17136,297.912403 L299.17136,290.152816 L298.988362,291.132424 Z" id="Fill-128" fill="#FBB139"></path>
                        <path d="M303.092714,289.8096 L303.269109,289.8096 C303.410602,289.8096 303.781316,288.981716 299.171455,287.428668 L299.171455,289.8096 L299.235127,289.8096 L299.171455,290.152628 L299.170983,297.912685 C303.033286,293.448143 303.179496,290.38304 303.092714,289.8096" id="Fill-130" fill="#E09B37"></path>
                        <path d="M299.131789,296.557679 C295.338347,292.134602 295.642558,289.7777 295.758582,289.7777 L298.931812,289.7777 L299.131789,289.7777 L299.331767,289.7777 L302.504996,289.7777 C302.621021,289.7777 302.925704,292.134602 299.131789,296.557679" id="Fill-132" fill="#21232F"></path>
                        <path d="M298.743531,259.56804 C287.718823,259.56804 276.335193,268.819419 276.334721,279.833056 C276.334721,285.861484 281.46292,290.937633 285.69405,294.594553 L285.616228,293.604108 C285.544067,293.255897 285.167694,291.126581 285.302584,288.388957 C284.12017,285.694211 283.047648,280.961089 287.466493,277.081296 C290.858565,274.102893 294.960936,272.763295 298.743531,272.533353 C302.526126,272.763295 306.628025,274.102893 310.020098,277.081296 C314.438942,280.961089 313.366421,285.694211 312.184006,288.388957 C312.318897,291.126581 311.942995,293.255897 311.870362,293.604108 L311.792541,294.594553 C316.024142,290.937633 321.151869,285.861484 321.151869,279.833056 C321.151869,268.819419 309.768239,259.56804 298.743531,259.56804" id="Fill-134" fill="#21232F"></path>
                        <path d="M285.727631,289.907043 C285.727631,291.497786 284.436738,292.787438 282.844463,292.787438 C281.251717,292.787438 279.960824,291.497786 279.960824,289.907043 C279.960824,288.316299 281.251717,287.026647 282.844463,287.026647 C284.436738,287.026647 285.727631,288.316299 285.727631,289.907043" id="Fill-136" fill="#21232F"></path>
                        <path d="M284.081023,287.50142 C284.221102,289.086038 283.049063,290.484535 281.46292,290.624479 C279.876305,290.764423 278.476934,289.593511 278.336855,288.008893 C278.196305,286.423804 279.368815,285.025778 280.954958,284.885834 C282.541101,284.745419 283.940944,285.916802 284.081023,287.50142" id="Fill-138" fill="#21232F"></path>
                        <path d="M282.565768,285.066301 C282.565768,286.657044 281.274875,287.946696 279.682601,287.946696 C278.089855,287.946696 276.798962,286.657044 276.798962,285.066301 C276.798962,283.475557 278.089855,282.185905 279.682601,282.185905 C281.274875,282.185905 282.565768,283.475557 282.565768,285.066301" id="Fill-140" fill="#21232F"></path>
                        <path d="M281.208703,281.399957 C281.208703,282.990701 279.91781,284.280353 278.325536,284.280353 C276.73279,284.280353 275.441897,282.990701 275.441897,281.399957 C275.441897,279.809214 276.73279,278.519562 278.325536,278.519562 C279.91781,278.519562 281.208703,279.809214 281.208703,281.399957" id="Fill-142" fill="#21232F"></path>
                        <path d="M280.777525,277.081249 C280.777525,278.671993 279.486632,279.961644 277.894358,279.961644 C276.301612,279.961644 275.010719,278.671993 275.010719,277.081249 C275.010719,275.490506 276.301612,274.200854 277.894358,274.200854 C279.486632,274.200854 280.777525,275.490506 280.777525,277.081249" id="Fill-144" fill="#21232F"></path>
                        <path d="M281.792789,272.691249 C281.792789,274.281993 280.501896,275.571645 278.909621,275.571645 C277.316875,275.571645 276.025982,274.281993 276.025982,272.691249 C276.025982,271.100506 277.316875,269.810854 278.909621,269.810854 C280.501896,269.810854 281.792789,271.100506 281.792789,272.691249" id="Fill-146" fill="#21232F"></path>
                        <path d="M285.449219,267.497585 C285.449219,269.088328 284.158326,270.37798 282.566051,270.37798 C280.973305,270.37798 279.682412,269.088328 279.682412,267.497585 C279.682412,265.906841 280.973305,264.61719 282.566051,264.61719 C284.158326,264.61719 285.449219,265.906841 285.449219,267.497585" id="Fill-148" fill="#21232F"></path>
                        <path d="M283.319269,269.810665 C283.319269,271.401409 282.028376,272.691061 280.436101,272.691061 C278.843355,272.691061 277.552462,271.401409 277.552462,269.810665 C277.552462,268.219922 278.843355,266.93027 280.436101,266.93027 C282.028376,266.93027 283.319269,268.219922 283.319269,269.810665" id="Fill-150" fill="#21232F"></path>
                        <path d="M288.611129,264.888125 C288.611129,266.478868 287.320236,267.76852 285.727961,267.76852 C284.135215,267.76852 282.844322,266.478868 282.844322,264.888125 C282.844322,263.297381 284.135215,262.007729 285.727961,262.007729 C287.320236,262.007729 288.611129,263.297381 288.611129,264.888125" id="Fill-152" fill="#21232F"></path>
                        <path d="M291.715403,262.007541 C291.715403,263.598284 290.42451,264.887936 288.832236,264.887936 C287.23949,264.887936 285.948597,263.598284 285.948597,262.007541 C285.948597,260.416797 287.23949,259.127146 288.832236,259.127146 C290.42451,259.127146 291.715403,260.416797 291.715403,262.007541" id="Fill-154" fill="#21232F"></path>
                        <path d="M296.416858,260.380846 C296.416858,261.971589 295.125965,263.261241 293.53369,263.261241 C291.940944,263.261241 290.650051,261.971589 290.650051,260.380846 C290.650051,258.790102 291.940944,257.50045 293.53369,257.50045 C295.125965,257.50045 296.416858,258.790102 296.416858,260.380846" id="Fill-156" fill="#21232F"></path>
                        <path d="M302.223,259.56804 C302.223,261.849079 300.372264,263.698036 298.089029,263.698036 C295.805794,263.698036 293.954586,261.849079 293.954586,259.56804 C293.954586,257.287 295.805794,255.438044 298.089029,255.438044 C300.372264,255.438044 302.223,257.287 302.223,259.56804" id="Fill-158" fill="#21232F"></path>
                        <path d="M311.912291,289.99492 C311.912291,291.585663 313.203184,292.875315 314.795459,292.875315 C316.388205,292.875315 317.679098,291.585663 317.679098,289.99492 C317.679098,288.404176 316.388205,287.114524 314.795459,287.114524 C313.203184,287.114524 311.912291,288.404176 311.912291,289.99492" id="Fill-160" fill="#21232F"></path>
                        <path d="M313.558899,287.589391 C313.418821,289.174009 314.590859,290.572507 316.177002,290.712451 C317.763617,290.852395 319.162988,289.681483 319.303067,288.096394 C319.443617,286.511776 318.271107,285.11375 316.684964,284.973806 C315.098821,284.833391 313.698978,286.004773 313.558899,287.589391" id="Fill-162" fill="#21232F"></path>
                        <path d="M315.074248,285.154225 C315.074248,286.744969 316.365141,288.034621 317.957416,288.034621 C319.550162,288.034621 320.841055,286.744969 320.841055,285.154225 C320.841055,283.563482 319.550162,282.27383 317.957416,282.27383 C316.365141,282.27383 315.074248,283.563482 315.074248,285.154225" id="Fill-164" fill="#21232F"></path>
                        <path d="M316.431313,281.487882 C316.431313,283.078625 317.722206,284.368277 319.314481,284.368277 C320.907227,284.368277 322.19812,283.078625 322.19812,281.487882 C322.19812,279.897138 320.907227,278.607486 319.314481,278.607486 C317.722206,278.607486 316.431313,279.897138 316.431313,281.487882" id="Fill-166" fill="#21232F"></path>
                        <path d="M316.862539,277.169221 C316.862539,278.759964 318.153432,280.049616 319.745706,280.049616 C321.338452,280.049616 322.629345,278.759964 322.629345,277.169221 C322.629345,275.578477 321.338452,274.288825 319.745706,274.288825 C318.153432,274.288825 316.862539,275.578477 316.862539,277.169221" id="Fill-168" fill="#21232F"></path>
                        <path d="M315.847322,272.779221 C315.847322,274.369964 317.138215,275.659616 318.73049,275.659616 C320.323236,275.659616 321.614129,274.369964 321.614129,272.779221 C321.614129,271.188477 320.323236,269.898825 318.73049,269.898825 C317.138215,269.898825 315.847322,271.188477 315.847322,272.779221" id="Fill-170" fill="#21232F"></path>
                        <path d="M312.190939,267.585509 C312.190939,269.176253 313.481832,270.465905 315.074107,270.465905 C316.666853,270.465905 317.957746,269.176253 317.957746,267.585509 C317.957746,265.994766 316.666853,264.705114 315.074107,264.705114 C313.481832,264.705114 312.190939,265.994766 312.190939,267.585509" id="Fill-172" fill="#21232F"></path>
                        <path d="M314.320842,269.89859 C314.320842,271.489333 315.611735,272.778985 317.20401,272.778985 C318.796756,272.778985 320.087649,271.489333 320.087649,269.89859 C320.087649,268.307846 318.796756,267.018194 317.20401,267.018194 C315.611735,267.018194 314.320842,268.307846 314.320842,269.89859" id="Fill-174" fill="#21232F"></path>
                        <path d="M309.02903,264.976049 C309.02903,266.566793 310.319923,267.856445 311.912197,267.856445 C313.504943,267.856445 314.795836,266.566793 314.795836,264.976049 C314.795836,263.385306 313.504943,262.095654 311.912197,262.095654 C310.319923,262.095654 309.02903,263.385306 309.02903,264.976049" id="Fill-176" fill="#21232F"></path>
                        <path d="M305.924802,262.095465 C305.924802,263.686209 307.215695,264.975861 308.807969,264.975861 C310.400715,264.975861 311.691609,263.686209 311.691609,262.095465 C311.691609,260.504722 310.400715,259.21507 308.807969,259.21507 C307.215695,259.21507 305.924802,260.504722 305.924802,262.095465" id="Fill-178" fill="#21232F"></path>
                        <path d="M301.223348,260.46877 C301.223348,262.059513 302.514241,263.349165 304.106515,263.349165 C305.699261,263.349165 306.990154,262.059513 306.990154,260.46877 C306.990154,258.878026 305.699261,257.588374 304.106515,257.588374 C302.514241,257.588374 301.223348,258.878026 301.223348,260.46877" id="Fill-180" fill="#21232F"></path>
                        <path d="M295.417206,259.655964 C295.417206,261.937004 297.267942,263.78596 299.551176,263.78596 C301.834411,263.78596 303.685619,261.937004 303.685619,259.655964 C303.685619,257.374925 301.834411,255.525968 299.551176,255.525968 C297.267942,255.525968 295.417206,257.374925 295.417206,259.655964" id="Fill-182" fill="#21232F"></path>
                        <polygon id="Fill-184" fill="#90BFD2" points="241.198186 385.377143 236.910459 366.842343 230.6555 362.283091 231.832255 386.950453"></polygon>
                        <polygon id="Fill-186" fill="#C6E9FA" points="231.832066 386.950594 217.68035 385.688742 223.779195 363.554037 230.655783 362.283233"></polygon>
                        <polygon id="Fill-188" fill="#E1F3FC" points="269.17458 464.396101 249.032497 461.773919 209.230353 465.007708 202.871632 467.333511 193.490607 466.286522 193.490607 466.286522 193.490607 466.286522 159.892014 462.536307 139.460341 475.428586 126.308041 528.185103 204.267702 539.903643 256.118496 525.379627 269.129302 529.2434 320.227822 529.2434"></polygon>
                        <polygon id="Fill-190" fill="#E1F3FC" points="132.355901 472.523735 113.431134 493.496953 95.7378339 529.243447 140.488952 530.971779"></polygon>
                        <polygon id="Fill-192" fill="#FFFFFF" points="249.032544 461.773777 193.490655 466.286381 179.220084 464.108061 122.041113 461.773777 126.308088 528.184962 269.129349 529.243259 320.227869 529.243259 296.498924 467.953458"></polygon>
                        <polygon id="Fill-194" fill="#DFF2FC" points="200.625657 525.37991 173.394746 511.832204 219.391007 493.979218 207.098517 472.5235 195.926184 475.309657 179.220037 464.108014 125.477473 461.914145 129.518058 475.669176 113.431182 493.497189 95.7378811 529.243683 204.26723 539.903926 255.486491 529.243683 256.210467 514.987304"></polygon>
                        <polygon id="Fill-196" fill="#C6E9FA" points="175.815371 495.122659 194.191142 485.82416 177.907118 485.82416 152.389222 472.52383 157.106618 463.205541 125.477615 461.914004 131.815584 483.315535 116.36873 508.644921 125.43611 529.243541 171.399828 535.300712 164.049236 515.632695 151.261518 509.450188 139.426995 495.508565"></polygon>
                        <polygon id="Fill-198" fill="#DFF2FC" points="248.136796 470.700035 234.181756 491.064001 248.136796 504.049105 245.28853 487.37457"></polygon>
                        <polygon id="Fill-200" fill="#C6E9FA" points="270.355533 505.106695 255.303917 529.243494 269.459878 526.59681"></polygon>
                        <path d="M295.544503,453.819023 C287.051115,449.671593 245.044029,443.642223 225.970223,448.164251 C206.896417,452.686278 177.768077,449.86007 162.81645,448.352727 C147.864823,446.845385 113.963433,445.500603 112.148542,457.949019 C112.148542,457.949019 112.185331,457.95326 112.250418,457.96127 C112.186746,458.283094 112.148542,458.612929 112.148542,458.951715 C112.148542,461.976767 114.811451,464.428849 118.096461,464.428849 C119.563749,464.428849 120.904165,463.937396 121.941313,463.126475 C122.89781,464.973075 124.937675,466.252361 127.307221,466.252361 C128.876385,466.252361 130.299339,465.688816 131.362427,464.774704 C132.425044,465.688816 133.847998,466.252361 135.417162,466.252361 C137.151873,466.252361 138.708302,465.56395 139.795916,464.473141 C140.883059,465.56395 142.439488,466.252361 144.174199,466.252361 C145.084475,466.252361 145.943341,466.058701 146.714481,465.72227 C147.788417,467.147154 149.575481,468.081999 151.602141,468.081999 C152.719468,468.081999 153.760861,467.793158 154.653685,467.29982 C155.701681,468.86135 157.571755,469.905511 159.712081,469.905511 C162.044367,469.905511 164.05782,468.666277 165.032711,466.866795 C166.053351,467.625414 167.350376,468.081999 168.76484,468.081999 C170.569827,468.081999 172.184268,467.338458 173.275184,466.169431 C174.304785,467.802111 176.219665,468.902815 178.418004,468.902815 C180.173467,468.902815 181.746876,468.197912 182.835905,467.084015 C183.850886,468.766169 185.798309,469.905511 188.036266,469.905511 C189.698815,469.905511 191.200534,469.275999 192.279658,468.263408 C193.359254,469.275999 194.860973,469.905511 196.523522,469.905511 C198.389823,469.905511 200.053315,469.112966 201.144231,467.874674 C202.234675,469.112966 203.898639,469.905511 205.76494,469.905511 C207.110544,469.905511 208.347197,469.489449 209.343784,468.795383 C210.34037,469.489449 211.577496,469.905511 212.9231,469.905511 C214.902595,469.905511 216.650984,469.01166 217.732467,467.642377 C218.813478,469.01166 220.562338,469.905511 222.541833,469.905511 C224.713288,469.905511 226.606944,468.830723 227.645507,467.231026 C228.726989,468.260109 230.240027,468.902815 231.918613,468.902815 C233.682095,468.902815 235.261163,468.192258 236.350664,467.069879 C237.439692,468.192258 239.019232,468.902815 240.782714,468.902815 C241.287846,468.902815 241.775527,468.838733 242.243871,468.729416 C242.90276,471.093857 245.226084,472.843863 247.999358,472.843863 C250.731599,472.843863 253.027568,471.145688 253.725132,468.834492 C254.01708,468.875015 254.313745,468.902815 254.618428,468.902815 C256.081943,468.902815 257.420001,468.414189 258.456206,467.607037 C259.534858,468.996582 261.297397,469.905511 263.293871,469.905511 C264.922462,469.905511 266.397297,469.301914 267.471233,468.325605 C268.562149,469.487093 270.170931,470.22545 271.969786,470.22545 C273.317276,470.22545 274.555817,469.807974 275.552875,469.112966 C276.550405,469.807974 277.788945,470.22545 279.136436,470.22545 C280.608912,470.22545 281.954044,469.730228 282.992607,468.914123 C284.009003,470.592509 285.954068,471.729023 288.189195,471.729023 C290.087095,471.729023 291.773699,470.907265 292.862728,469.632691 C293.669241,470.008702 294.578573,470.22545 295.544503,470.22545 C298.829512,470.22545 301.492893,467.773368 301.492893,464.748788 C301.492893,464.748788 304.037891,457.966453 295.544503,453.819023" id="Fill-202" fill="#FFFFFF"></path>
                        <path d="M295.544503,451.073671 C287.051115,446.926241 245.044029,440.896871 225.970223,445.418899 C206.896417,449.940926 177.768077,447.114718 162.81645,445.607375 C147.864823,444.100033 113.963433,442.755252 112.148542,455.203667 C112.148542,455.203667 112.185331,455.207908 112.250418,455.215918 C112.186746,455.537742 112.148542,455.867577 112.148542,456.206364 C112.148542,459.231415 114.811451,461.683497 118.096461,461.683497 C119.563749,461.683497 120.904165,461.192044 121.941313,460.381123 C122.89781,462.227723 124.937675,463.507009 127.307221,463.507009 C128.876385,463.507009 130.299339,462.943464 131.362427,462.029352 C132.425044,462.943464 133.847998,463.507009 135.417162,463.507009 C137.151873,463.507009 138.708302,462.819069 139.795916,461.727789 C140.883059,462.819069 142.439488,463.507009 144.174199,463.507009 C145.084475,463.507009 145.943341,463.313349 146.714481,462.976918 C147.788417,464.401802 149.575481,465.336647 151.602141,465.336647 C152.719468,465.336647 153.760861,465.047806 154.653685,464.554469 C155.701681,466.115998 157.571755,467.160159 159.712081,467.160159 C162.044367,467.160159 164.05782,465.920925 165.032711,464.121443 C166.053351,464.880062 167.350376,465.336647 168.76484,465.336647 C170.569827,465.336647 172.184268,464.593106 173.275184,463.424079 C174.304785,465.056759 176.219665,466.157463 178.418004,466.157463 C180.173467,466.157463 181.746876,465.45256 182.835905,464.338663 C183.850886,466.020817 185.798309,467.160159 188.036266,467.160159 C189.698815,467.160159 191.200534,466.530647 192.279658,465.518056 C193.359254,466.530647 194.860973,467.160159 196.523522,467.160159 C198.389823,467.160159 200.053315,466.367615 201.144231,465.129323 C202.234675,466.367615 203.898639,467.160159 205.76494,467.160159 C207.110544,467.160159 208.347197,466.744097 209.343784,466.050031 C210.34037,466.744097 211.577496,467.160159 212.9231,467.160159 C214.902595,467.160159 216.650984,466.266308 217.732467,464.897025 C218.813478,466.266308 220.562338,467.160159 222.541833,467.160159 C224.713288,467.160159 226.606944,466.085371 227.645507,464.485675 C228.726989,465.514757 230.240027,466.157463 231.918613,466.157463 C233.682095,466.157463 235.261163,465.446906 236.350664,464.324527 C237.439692,465.446906 239.019232,466.157463 240.782714,466.157463 C241.287846,466.157463 241.775527,466.093381 242.243871,465.984064 C242.90276,468.348505 245.226084,470.098511 247.999358,470.098511 C250.731599,470.098511 253.027568,468.400336 253.725132,466.08914 C254.01708,466.129663 254.313745,466.157463 254.618428,466.157463 C256.081943,466.157463 257.420001,465.668837 258.456206,464.861686 C259.534858,466.25123 261.297397,467.160159 263.293871,467.160159 C264.922462,467.160159 266.397297,466.556562 267.471233,465.580253 C268.562149,466.741741 270.170931,467.480098 271.969786,467.480098 C273.317276,467.480098 274.555817,467.062622 275.552875,466.367615 C276.550405,467.062622 277.788945,467.480098 279.136436,467.480098 C280.608912,467.480098 281.954044,466.984876 282.992607,466.168772 C284.009003,467.847157 285.954068,468.983671 288.189195,468.983671 C290.087095,468.983671 291.773699,468.161913 292.862728,466.887339 C293.669241,467.26335 294.578573,467.480098 295.544503,467.480098 C298.829512,467.480098 301.492893,465.028016 301.492893,462.003436 C301.492893,462.003436 304.037891,455.221102 295.544503,451.073671" id="Fill-204" fill="#DFF2FC"></path>
                        <path d="M136.643109,473.075454 C136.643109,473.882134 135.988937,474.535677 135.18148,474.535677 C134.374024,474.535677 133.719852,473.882134 133.719852,473.075454 C133.719852,472.268773 134.374024,471.61523 135.18148,471.61523 C135.988937,471.61523 136.643109,472.268773 136.643109,473.075454" id="Fill-206" fill="#FFFFFF"></path>
                        <path d="M152.296827,472.557284 C152.296827,473.07748 151.874704,473.499197 151.354008,473.499197 C150.83284,473.499197 150.410717,473.07748 150.410717,472.557284 C150.410717,472.037088 150.83284,471.615372 151.354008,471.615372 C151.874704,471.615372 152.296827,472.037088 152.296827,472.557284" id="Fill-208" fill="#FFFFFF"></path>
                        <path d="M137.622811,491.370323 C137.622811,492.811228 136.453602,493.979312 135.011311,493.979312 C133.56902,493.979312 132.399811,492.811228 132.399811,491.370323 C132.399811,489.929419 133.56902,488.761334 135.011311,488.761334 C136.453602,488.761334 137.622811,489.929419 137.622811,491.370323" id="Fill-210" fill="#FFFFFF"></path>
                        <path d="M181.529731,474.582796 C181.529731,475.18121 181.044408,475.666066 180.445418,475.666066 C179.846429,475.666066 179.360634,475.18121 179.360634,474.582796 C179.360634,473.984383 179.846429,473.499526 180.445418,473.499526 C181.044408,473.499526 181.529731,473.984383 181.529731,474.582796" id="Fill-212" fill="#FFFFFF"></path>
                        <path d="M221.512751,484.568952 C221.512751,485.739864 220.562857,486.688844 219.390819,486.688844 C218.219252,486.688844 217.269358,485.739864 217.269358,484.568952 C217.269358,483.398512 218.219252,482.449061 219.390819,482.449061 C220.562857,482.449061 221.512751,483.398512 221.512751,484.568952" id="Fill-214" fill="#DFF2FC"></path>
                        <path d="M196.429052,480.269893 C196.429052,480.887154 195.928164,481.388031 195.309838,481.388031 C194.691982,481.388031 194.191095,480.887154 194.191095,480.269893 C194.191095,479.652632 194.691982,479.151755 195.309838,479.151755 C195.928164,479.151755 196.429052,479.652632 196.429052,480.269893" id="Fill-216" fill="#FFFFFF"></path>
                        <path d="M118.602112,499.723093 C118.602112,500.339412 118.102168,500.838875 117.485256,500.838875 C116.868815,500.838875 116.368871,500.339412 116.368871,499.723093 C116.368871,499.106774 116.868815,498.607311 117.485256,498.607311 C118.102168,498.607311 118.602112,499.106774 118.602112,499.723093" id="Fill-218" fill="#FFFFFF"></path>
                        <path d="M119.952055,471.049942 C119.952055,472.402733 118.854536,473.499197 117.500443,473.499197 C116.146349,473.499197 115.048359,472.402733 115.048359,471.049942 C115.048359,469.69715 116.146349,468.600687 117.500443,468.600687 C118.854536,468.600687 119.952055,469.69715 119.952055,471.049942" id="Fill-220" fill="#FFFFFF"></path>
                        <path d="M113.351096,465.962672 C113.351096,466.482868 112.928974,466.904585 112.408277,466.904585 C111.887109,466.904585 111.464987,466.482868 111.464987,465.962672 C111.464987,465.442477 111.887109,465.02076 112.408277,465.02076 C112.928974,465.02076 113.351096,465.442477 113.351096,465.962672" id="Fill-222" fill="#FFFFFF"></path>
                        <path d="M108.353213,460.828284 C108.353213,461.062466 108.16314,461.252356 107.928732,461.252356 C107.694324,461.252356 107.504723,461.062466 107.504723,460.828284 C107.504723,460.594102 107.694324,460.404211 107.928732,460.404211 C108.16314,460.404211 108.353213,460.594102 108.353213,460.828284" id="Fill-224" fill="#FFFFFF"></path>
                        <path d="M306.665332,471.771902 C306.665332,472.363719 306.158785,472.843863 305.533855,472.843863 C304.908925,472.843863 304.401906,472.363719 304.401906,471.771902 C304.401906,471.180085 304.908925,470.69994 305.533855,470.69994 C306.158785,470.69994 306.665332,471.180085 306.665332,471.771902" id="Fill-226" fill="#FFFFFF"></path>
                        <path d="M305.533714,464.46546 C305.533714,465.057277 305.027167,465.537422 304.402237,465.537422 C303.777307,465.537422 303.27076,465.057277 303.27076,464.46546 C303.27076,463.873644 303.777307,463.393499 304.402237,463.393499 C305.027167,463.393499 305.533714,463.873644 305.533714,464.46546" id="Fill-228" fill="#FFFFFF"></path>
                        <path d="M121.270067,461.277 C121.270067,462.147762 120.563543,462.853608 119.691942,462.853608 C118.81987,462.853608 118.113346,462.147762 118.113346,461.277 C118.113346,460.406237 118.81987,459.700392 119.691942,459.700392 C120.563543,459.700392 121.270067,460.406237 121.270067,461.277" id="Fill-230" fill="#C6E9FA"></path>
                        <path d="M200.012424,456.541805 C200.012424,457.68633 199.083754,458.614578 197.937656,458.614578 C196.79203,458.614578 195.86336,457.68633 195.86336,456.541805 C195.86336,455.39728 196.79203,454.469032 197.937656,454.469032 C199.083754,454.469032 200.012424,455.39728 200.012424,456.541805" id="Fill-232" fill="#C6E9FA"></path>
                        <path d="M174.457221,454.458195 C174.457221,455.290791 173.781825,455.965537 172.948428,455.965537 C172.115031,455.965537 171.439635,455.290791 171.439635,454.458195 C171.439635,453.625599 172.115031,452.950852 172.948428,452.950852 C173.781825,452.950852 174.457221,453.625599 174.457221,454.458195" id="Fill-234" fill="#C6E9FA"></path>
                        <path d="M244.804763,454.327863 C244.804763,454.770312 244.445841,455.128418 244.003438,455.128418 C243.560563,455.128418 243.201641,454.770312 243.201641,454.327863 C243.201641,453.885414 243.560563,453.527308 244.003438,453.527308 C244.445841,453.527308 244.804763,453.885414 244.804763,454.327863" id="Fill-236" fill="#C6E9FA"></path>
                        <path d="M267.530991,450.653745 C267.530991,451.148025 267.130092,451.548538 266.635336,451.548538 C266.14058,451.548538 265.73921,451.148025 265.73921,450.653745 C265.73921,450.159465 266.14058,449.758952 266.635336,449.758952 C267.130092,449.758952 267.530991,450.159465 267.530991,450.653745" id="Fill-238" fill="#C6E9FA"></path>
                        <path d="M141.923885,454.458195 C141.923885,455.290791 141.248489,455.965537 140.415092,455.965537 C139.581695,455.965537 138.906299,455.290791 138.906299,454.458195 C138.906299,453.625599 139.581695,452.950852 140.415092,452.950852 C141.248489,452.950852 141.923885,453.625599 141.923885,454.458195" id="Fill-240" fill="#C6E9FA"></path>
                        <path d="M248.136796,466.355269 C248.136796,467.716542 247.032203,468.820545 245.669148,468.820545 C244.306565,468.820545 243.2015,467.716542 243.2015,466.355269 C243.2015,464.993996 244.306565,463.889994 245.669148,463.889994 C247.032203,463.889994 248.136796,464.993996 248.136796,466.355269" id="Fill-242" fill="#C6E9FA"></path>
                        <path d="M283.467601,462.056398 C283.467601,462.212363 283.340729,462.339113 283.184614,462.339113 C283.028499,462.339113 282.901627,462.212363 282.901627,462.056398 C282.901627,461.900434 283.028499,461.773683 283.184614,461.773683 C283.340729,461.773683 283.467601,461.900434 283.467601,462.056398" id="Fill-244" fill="#C6E9FA"></path>
                        <path d="M291.860293,455.034415 C291.860293,455.867011 291.184897,456.541758 290.3515,456.541758 C289.518102,456.541758 288.842706,455.867011 288.842706,455.034415 C288.842706,454.201819 289.518102,453.527073 290.3515,453.527073 C291.184897,453.527073 291.860293,454.201819 291.860293,455.034415" id="Fill-246" fill="#C6E9FA"></path>
                        <polygon id="Fill-248" fill="#90BFD2" points="160.096708 454.110031 153.470092 425.464869 143.803722 418.419609 145.621914 456.541852"></polygon>
                        <polygon id="Fill-250" fill="#C6E9FA" points="145.621773 456.541758 123.75111 454.591495 133.176469 420.383442 143.80358 418.419515"></polygon>
                        <polygon id="Fill-252" fill="#DFF2FC" points="185.350906 521.629742 214.77261 507.309752 232.68947 521.629742 213.075158 529.243259 195.310168 528.696205"></polygon>
                        <path d="M181.015118,449.758716 C181.015118,449.758716 173.282494,451.16758 169.981921,451.548774 C166.681347,451.929497 166.304503,456.609845 168.756115,456.954758 C171.207727,457.29967 176.866055,455.886566 189.784891,459.278204 C202.704198,462.669372 222.412838,460.400112 232.0311,458.614295 C241.649834,456.828478 240.518357,452.863399 236.746138,451.548774 C232.974391,450.234149 218.734949,449.758716 218.734949,449.758716 L192.51949,446.556497 L182.052266,449.758716 L181.015118,449.758716 Z" id="Fill-254" fill="#C6E9FA"></path>
                        <path d="M205.194155,360.868526 C205.194155,360.868526 199.486304,356.348383 191.562663,360.349744 C183.639023,364.350634 181.859977,371.176789 185.579371,377.748501 C185.579371,377.748501 179.364973,392.627795 177.459055,399.01857 C175.553608,405.408873 174.76313,435.721112 193.75487,440.614439 C212.74661,445.508237 219.538302,442.792287 224.389645,434.644439 C229.240988,426.497061 235.709132,406.367277 231.504886,398.538896 C227.300168,390.710987 225.916833,377.945459 225.916833,377.945459 C225.916833,377.945459 229.016957,366.076609 223.842065,360.920829 C218.667645,355.765519 205.194155,360.868526 205.194155,360.868526" id="Fill-256" fill="#FFFFFF"></path>
                        <path d="M205.194155,351.592126 L205.194155,448.452667 C205.194155,448.452667 211.071326,442.703656 211.917929,443.138095 C212.764061,443.572534 225.244738,438.870982 225.244738,438.870982 C225.244738,438.870982 242.021632,405.349456 223.608129,382.865597 C223.608129,382.865597 235.27003,364.469327 217.470138,356.497704 C199.670245,348.526081 209.929001,356.906699 209.929001,356.906699 L205.194155,351.592126 Z" id="Fill-258" fill="#EAEAE9"></path>
                        <path d="M228.927486,418.431106 C224.835491,441.732954 211.127593,441.426208 205.194296,441.426208 C199.260999,441.426208 185.552629,441.732954 181.461106,418.431106 C178.264295,400.229438 187.489676,386.268026 191.680716,381.028844 C187.808037,379.307109 185.103623,375.436269 185.103623,370.927906 C185.103623,364.820789 190.058728,359.870448 196.171722,359.870448 C199.899135,359.870448 203.188389,361.716577 205.194296,364.537603 C207.199732,361.716577 210.489457,359.870448 214.21687,359.870448 C220.329393,359.870448 225.284969,364.820789 225.284969,370.927906 C225.284969,375.436269 222.580555,379.307109 218.707405,381.028844 C222.898444,386.268026 232.123826,400.229438 228.927486,418.431106 M228.421882,382.850943 C229.409507,380.180228 229.950484,377.293707 229.950484,374.280435 C229.950484,360.621056 218.866821,349.548049 205.194296,349.548049 C191.521771,349.548049 180.438108,360.621056 180.438108,374.280435 C180.438108,377.293707 180.978613,380.180228 181.966238,382.850943 C178.098275,388.670633 172.514939,400.462207 174.300116,418.431106 C176.959724,445.207522 189.644623,451.952633 205.194296,451.952633 C220.743497,451.952633 233.428397,445.207522 236.088476,418.431106 C237.873182,400.462207 232.289845,388.670633 228.421882,382.850943" id="Fill-260" fill="#21232F"></path>
                        <path d="M179.926373,388.179839 C179.926373,388.179839 165.454881,405.072536 167.855084,424.256639 C168.571041,429.979734 168.878082,411.379438 178.187416,403.203318 L179.926373,388.179839 Z" id="Fill-262" fill="#21232F"></path>
                        <path d="M230.260968,387.820037 C230.260968,387.820037 244.73246,404.712734 242.332257,423.896837 C241.6163,429.619932 241.309259,411.019636 231.999925,402.843516 L230.260968,387.820037 Z" id="Fill-264" fill="#21232F"></path>
                        <path d="M190.618948,443.138048 C184.743191,443.138048 179.980046,447.896614 179.980046,453.766721 L201.25785,453.766721 C201.25785,447.896614 196.494705,443.138048 190.618948,443.138048" id="Fill-266" fill="#F3848D"></path>
                        <path d="M219.769408,443.138048 C213.893651,443.138048 209.130506,447.896614 209.130506,453.766721 L230.40831,453.766721 C230.40831,447.896614 225.645165,443.138048 219.769408,443.138048" id="Fill-268" fill="#F3848D"></path>
                        <path d="M202.138176,370.575831 C202.138176,372.849332 200.293572,374.692163 198.017883,374.692163 C195.742195,374.692163 193.89759,372.849332 193.89759,370.575831 C193.89759,368.302331 195.742195,366.4595 198.017883,366.4595 C200.293572,366.4595 202.138176,368.302331 202.138176,370.575831" id="Fill-270" fill="#F3848D"></path>
                        <path d="M200.660417,370.575831 C200.660417,372.033699 199.477531,373.215919 198.017789,373.215919 C196.558518,373.215919 195.37516,372.033699 195.37516,370.575831 C195.37516,369.117964 196.558518,367.935744 198.017789,367.935744 C199.477531,367.935744 200.660417,369.117964 200.660417,370.575831" id="Fill-272" fill="#21232F"></path>
                        <path d="M197.307255,368.81626 C197.307255,369.43305 196.80684,369.932984 196.189456,369.932984 C195.571601,369.932984 195.071185,369.43305 195.071185,368.81626 C195.071185,368.19947 195.571601,367.699535 196.189456,367.699535 C196.80684,367.699535 197.307255,368.19947 197.307255,368.81626" id="Fill-274" fill="#FFFFFF"></path>
                        <path d="M216.355545,370.575831 C216.355545,372.849332 214.510941,374.692163 212.235252,374.692163 C209.959564,374.692163 208.114959,372.849332 208.114959,370.575831 C208.114959,368.302331 209.959564,366.4595 212.235252,366.4595 C214.510941,366.4595 216.355545,368.302331 216.355545,370.575831" id="Fill-276" fill="#F3848D"></path>
                        <path d="M214.877834,370.575831 C214.877834,372.033699 213.694947,373.215919 212.235205,373.215919 C210.775935,373.215919 209.592577,372.033699 209.592577,370.575831 C209.592577,369.117964 210.775935,367.935744 212.235205,367.935744 C213.694947,367.935744 214.877834,369.117964 214.877834,370.575831" id="Fill-278" fill="#21232F"></path>
                        <path d="M211.524672,368.81626 C211.524672,369.43305 211.024256,369.932984 210.406872,369.932984 C209.789017,369.932984 209.288601,369.43305 209.288601,368.81626 C209.288601,368.19947 209.789017,367.699535 210.406872,367.699535 C211.024256,367.699535 211.524672,368.19947 211.524672,368.81626" id="Fill-280" fill="#FFFFFF"></path>
                        <path d="M204.948144,382.916862 L200.058126,380.922308 L204.82646,380.922308 L205.194343,380.922308 L205.224057,380.922308 L205.224057,377.332297 C205.213681,377.328528 205.204248,377.325229 205.194343,377.321931 C198.211163,379.670822 198.771478,380.922308 198.985133,380.922308 L199.296419,380.922308 C199.141248,382.042802 199.376127,386.536087 205.224057,393.140311 L205.224057,381.439676 L204.948144,382.916862 Z" id="Fill-282" fill="#F3848D"></path>
                        <path d="M211.136885,380.922261 L211.403364,380.922261 C211.616548,380.922261 212.174976,379.674073 205.223868,377.33225 L205.223868,380.922261 L205.320555,380.922261 L205.223868,381.439629 L205.223868,393.140264 C211.047744,386.408347 211.268002,381.786426 211.136885,380.922261" id="Fill-284" fill="#DB6575"></path>
                        <path d="M205.164394,391.097365 C199.44428,384.428116 199.903191,380.873916 200.078171,380.873916 L204.863012,380.873916 L205.164394,380.873916 L205.465775,380.873916 L210.250616,380.873916 C210.425597,380.873916 210.884979,384.428116 205.164394,391.097365" id="Fill-286" fill="#21232F"></path>
                        <path d="M204.578752,335.322345 C187.955614,335.322345 170.790085,349.271978 170.790085,365.879604 C170.790085,374.968894 178.522237,382.623404 184.902183,388.137291 L184.785215,386.643613 C184.675793,386.118705 184.108404,382.908004 184.312155,378.779893 C182.529336,374.716806 180.912064,367.580135 187.574997,361.729818 C192.689518,357.238889 198.875146,355.21889 204.578752,354.872092 C210.282358,355.21889 216.467986,357.238889 221.582507,361.729818 C228.24544,367.580135 226.628168,374.716806 224.845349,378.779893 C225.0491,382.908004 224.48171,386.118705 224.372289,386.643613 L224.255321,388.137291 C230.635266,382.623404 238.367419,374.968894 238.367419,365.879604 C238.367419,349.271978 221.201889,335.322345 204.578752,335.322345" id="Fill-288" fill="#21232F"></path>
                        <path d="M184.952932,381.069131 C184.952932,383.467968 183.006452,385.412577 180.605306,385.412577 C178.20416,385.412577 176.25768,383.467968 176.25768,381.069131 C176.25768,378.670294 178.20416,376.725685 180.605306,376.725685 C183.006452,376.725685 184.952932,378.670294 184.952932,381.069131" id="Fill-290" fill="#21232F"></path>
                        <path d="M182.47005,377.441849 C182.681347,379.831263 180.914092,381.939846 178.521907,382.15094 C176.130194,382.362034 174.020053,380.596007 173.808284,378.206594 C173.596987,375.81718 175.364714,373.708597 177.756427,373.497503 C180.14814,373.286409 182.258753,375.052436 182.47005,377.441849" id="Fill-292" fill="#21232F"></path>
                        <path d="M180.185211,373.77004 C180.185211,376.168878 178.238731,378.113486 175.837585,378.113486 C173.436439,378.113486 171.489959,376.168878 171.489959,373.77004 C171.489959,371.371203 173.436439,369.426594 175.837585,369.426594 C178.238731,369.426594 180.185211,371.371203 180.185211,373.77004" id="Fill-294" fill="#21232F"></path>
                        <path d="M178.138931,368.241688 C178.138931,370.640526 176.192451,372.585134 173.791305,372.585134 C171.390159,372.585134 169.443679,370.640526 169.443679,368.241688 C169.443679,365.842851 171.390159,363.898242 173.791305,363.898242 C176.192451,363.898242 178.138931,365.842851 178.138931,368.241688" id="Fill-296" fill="#21232F"></path>
                        <path d="M177.488721,361.729771 C177.488721,364.128608 175.542241,366.073217 173.141095,366.073217 C170.739949,366.073217 168.793469,364.128608 168.793469,361.729771 C168.793469,359.330933 170.739949,357.386325 173.141095,357.386325 C175.542241,357.386325 177.488721,359.330933 177.488721,361.729771" id="Fill-298" fill="#21232F"></path>
                        <path d="M179.019587,355.11028 C179.019587,357.509117 177.073107,359.453726 174.671961,359.453726 C172.270815,359.453726 170.324335,357.509117 170.324335,355.11028 C170.324335,352.711443 172.270815,350.766834 174.671961,350.766834 C177.073107,350.766834 179.019587,352.711443 179.019587,355.11028" id="Fill-300" fill="#21232F"></path>
                        <path d="M184.532885,347.278978 C184.532885,349.677816 182.586405,351.622424 180.185259,351.622424 C177.784113,351.622424 175.837633,349.677816 175.837633,347.278978 C175.837633,344.880141 177.784113,342.935532 180.185259,342.935532 C182.586405,342.935532 184.532885,344.880141 184.532885,347.278978" id="Fill-302" fill="#21232F"></path>
                        <path d="M181.321311,350.76674 C181.321311,353.165577 179.374831,355.110186 176.973684,355.110186 C174.572538,355.110186 172.626058,353.165577 172.626058,350.76674 C172.626058,348.367902 174.572538,346.423294 176.973684,346.423294 C179.374831,346.423294 181.321311,348.367902 181.321311,350.76674" id="Fill-304" fill="#21232F"></path>
                        <path d="M189.300605,343.344244 C189.300605,345.743081 187.354125,347.68769 184.952979,347.68769 C182.551833,347.68769 180.605353,345.743081 180.605353,343.344244 C180.605353,340.945407 182.551833,339.000798 184.952979,339.000798 C187.354125,339.000798 189.300605,340.945407 189.300605,343.344244" id="Fill-306" fill="#21232F"></path>
                        <path d="M193.981354,339.000704 C193.981354,341.399541 192.034874,343.34415 189.633728,343.34415 C187.232582,343.34415 185.286102,341.399541 185.286102,339.000704 C185.286102,336.601866 187.232582,334.657258 189.633728,334.657258 C192.034874,334.657258 193.981354,336.601866 193.981354,339.000704" id="Fill-308" fill="#21232F"></path>
                        <path d="M201.070466,336.547915 C201.070466,338.946752 199.123986,340.891361 196.72284,340.891361 C194.321694,340.891361 192.375213,338.946752 192.375213,336.547915 C192.375213,334.149077 194.321694,332.204469 196.72284,332.204469 C199.123986,332.204469 201.070466,334.149077 201.070466,336.547915" id="Fill-310" fill="#21232F"></path>
                        <path d="M209.825287,335.322345 C209.825287,338.761574 207.034562,341.550087 203.591551,341.550087 C200.149012,341.550087 197.357816,338.761574 197.357816,335.322345 C197.357816,331.883116 200.149012,329.094603 203.591551,329.094603 C207.034562,329.094603 209.825287,331.883116 209.825287,335.322345" id="Fill-312" fill="#21232F"></path>
                        <path d="M224.435489,381.201724 C224.435489,383.600562 226.381969,385.54517 228.783115,385.54517 C231.184261,385.54517 233.130741,383.600562 233.130741,381.201724 C233.130741,378.802887 231.184261,376.858278 228.783115,376.858278 C226.381969,376.858278 224.435489,378.802887 224.435489,381.201724" id="Fill-314" fill="#21232F"></path>
                        <path d="M226.918371,377.574443 C226.707074,379.963856 228.474329,382.07244 230.866514,382.283534 C233.258227,382.494628 235.368368,380.728601 235.580137,378.339187 C235.791434,375.949774 234.023707,373.84119 231.631994,373.630096 C229.240281,373.419002 227.129668,375.185029 226.918371,377.574443" id="Fill-316" fill="#21232F"></path>
                        <path d="M229.20321,373.902634 C229.20321,376.301471 231.14969,378.24608 233.550836,378.24608 C235.951982,378.24608 237.898462,376.301471 237.898462,373.902634 C237.898462,371.503796 235.951982,369.559188 233.550836,369.559188 C231.14969,369.559188 229.20321,371.503796 229.20321,373.902634" id="Fill-318" fill="#21232F"></path>
                        <path d="M231.249443,368.374282 C231.249443,370.773119 233.195923,372.717728 235.597069,372.717728 C237.998215,372.717728 239.944695,370.773119 239.944695,368.374282 C239.944695,365.975444 237.998215,364.030836 235.597069,364.030836 C233.195923,364.030836 231.249443,365.975444 231.249443,368.374282" id="Fill-320" fill="#21232F"></path>
                        <path d="M231.8997,361.862317 C231.8997,364.261154 233.84618,366.205763 236.247326,366.205763 C238.648472,366.205763 240.594952,364.261154 240.594952,361.862317 C240.594952,359.46348 238.648472,357.518871 236.247326,357.518871 C233.84618,357.518871 231.8997,359.46348 231.8997,361.862317" id="Fill-322" fill="#21232F"></path>
                        <path d="M230.368834,355.242826 C230.368834,357.641664 232.315314,359.586272 234.71646,359.586272 C237.117606,359.586272 239.064086,357.641664 239.064086,355.242826 C239.064086,352.843989 237.117606,350.89938 234.71646,350.89938 C232.315314,350.89938 230.368834,352.843989 230.368834,355.242826" id="Fill-324" fill="#21232F"></path>
                        <path d="M224.855536,347.411524 C224.855536,349.810362 226.802016,351.75497 229.203162,351.75497 C231.604309,351.75497 233.550789,349.810362 233.550789,347.411524 C233.550789,345.012687 231.604309,343.068078 229.203162,343.068078 C226.802016,343.068078 224.855536,345.012687 224.855536,347.411524" id="Fill-326" fill="#21232F"></path>
                        <path d="M228.067111,350.899333 C228.067111,353.298171 230.013591,355.242779 232.414737,355.242779 C234.815883,355.242779 236.762363,353.298171 236.762363,350.899333 C236.762363,348.500496 234.815883,346.555887 232.414737,346.555887 C230.013591,346.555887 228.067111,348.500496 228.067111,350.899333" id="Fill-328" fill="#21232F"></path>
                        <path d="M220.087816,343.476837 C220.087816,345.875675 222.034296,347.820283 224.435442,347.820283 C226.836588,347.820283 228.783068,345.875675 228.783068,343.476837 C228.783068,341.078 226.836588,339.133391 224.435442,339.133391 C222.034296,339.133391 220.087816,341.078 220.087816,343.476837" id="Fill-330" fill="#21232F"></path>
                        <path d="M215.407067,339.133297 C215.407067,341.532135 217.353547,343.476743 219.754693,343.476743 C222.155839,343.476743 224.102319,341.532135 224.102319,339.133297 C224.102319,336.73446 222.155839,334.789851 219.754693,334.789851 C217.353547,334.789851 215.407067,336.73446 215.407067,339.133297" id="Fill-332" fill="#21232F"></path>
                        <path d="M208.317955,336.680508 C208.317955,339.079346 210.264435,341.023954 212.665582,341.023954 C215.066728,341.023954 217.013208,339.079346 217.013208,336.680508 C217.013208,334.281671 215.066728,332.337062 212.665582,332.337062 C210.264435,332.337062 208.317955,334.281671 208.317955,336.680508" id="Fill-334" fill="#21232F"></path>
                        <path d="M199.563135,335.454938 C199.563135,338.894167 202.35386,341.68268 205.79687,341.68268 C209.239409,341.68268 212.030605,338.894167 212.030605,335.454938 C212.030605,332.01571 209.239409,329.227196 205.79687,329.227196 C202.35386,329.227196 199.563135,332.01571 199.563135,335.454938" id="Fill-336" fill="#21232F"></path>
                        <polygon id="Fill-338" fill="#90BFD2" points="215.914604 538.048561 210.85951 516.195628 203.484865 510.820743 204.871974 539.903643"></polygon>
                        <polygon id="Fill-340" fill="#C6E9FA" points="204.871879 539.90369 188.186956 538.416138 195.377188 512.31918 203.484771 510.820791"></polygon>
                        <polygon id="Fill-342" fill="#90BFD2" points="309.025068 527.388318 303.703023 518.899798 321.454807 500.1605 320.067698 529.2434"></polygon>
                        <polygon id="Fill-344" fill="#C6E9FA" points="320.067745 529.243447 336.752668 527.755895 335.10474 512.817701 321.454854 500.160547"></polygon>
                    </g>
                </g>
            </g>
        </g>
    </g>
</svg>