<?xml version="1.0" encoding="UTF-8"?>
<svg width="64px" height="64px" viewBox="0 0 64 64" version="1.1" xmlns="http://www.w3.org/2000/svg" xmlns:xlink="http://www.w3.org/1999/xlink">
    <defs>
        <rect id="path-1" x="0" y="0" width="56" height="56" rx="28"></rect>
        <path d="M9,0 C9.25759816,0 9.49177479,0.0665315927 9.70253692,0.199596774 C9.91329905,0.332661956 10.0713683,0.514111754 10.1767493,0.743951613 L12.2141064,5.11693548 L16.9035404,5.82459677 C17.1377205,5.86088728 17.3484795,5.9576605 17.5358236,6.11491935 C17.7231677,6.27217821 17.8578193,6.47177298 17.9397823,6.71370968 C18.0100364,6.94354954 18.018818,7.17641011 17.9661275,7.41229839 C17.9134369,7.64818666 17.7992758,7.85685393 17.6236407,8.03830645 L14.1987732,11.5766129 L14.9891273,16.4939516 C15.0359633,16.7358883 15.0096184,16.971773 14.9100919,17.2016129 C14.8105653,17.4314528 14.6612777,17.6189509 14.4622246,17.7641129 C14.3451345,17.8487907 14.2221918,17.909274 14.0933927,17.9455645 C13.9645936,17.981855 13.8357965,18 13.7069974,18 C13.6016163,18 13.4962368,17.9879033 13.3908558,17.9637097 C13.2854747,17.939516 13.1800952,17.8971777 13.0747141,17.8366935 L9,15.5685484 L4.90772243,17.8366935 C4.81405037,17.8971777 4.7145253,17.939516 4.60914424,17.9637097 C4.50376317,17.9879033 4.39838369,18 4.29300262,18 C4.15249454,18 4.02077018,17.981855 3.89782561,17.9455645 C3.77488103,17.909274 3.65486551,17.8487907 3.53777543,17.7641129 C3.33872231,17.6189509 3.18943471,17.4314528 3.08990815,17.2016129 C2.99038158,16.971773 2.96403671,16.7358883 3.01087274,16.4939516 L3.80122678,11.5766129 L0.376359286,8.03830645 C0.200724178,7.85685393 0.0865630697,7.64818666 0.0338725371,7.41229839 C-0.0188179955,7.17641011 -0.0100363718,6.94354954 0.0602176716,6.71370968 C0.142180722,6.48386982 0.276832286,6.2872992 0.464176402,6.12399194 C0.651520517,5.96068467 0.862279486,5.86088728 1.09645963,5.82459677 L5.78589358,5.11693548 L7.82325066,0.743951613 C7.92863172,0.514111754 8.08670095,0.332661956 8.29746308,0.199596774 C8.50822521,0.0665315927 8.74240184,0 9,0 Z" id="path-3"></path>
    </defs>
    <g id="Symbols" stroke="none" stroke-width="1" fill="none" fill-rule="evenodd">
        <g id="App-Bar-/-Bottom-App-Bar-/-Right-FAB-/-Circular-/-Cut-" transform="translate(-284.000000, 2.000000)">
            <g id="FAB-/-Standard-/-Circular-/-Secondary-Color-/-Enabled-" transform="translate(288.000000, 0.000000)">
                <mask id="mask-2" fill="white">
                    <use xlink:href="#path-1"></use>
                </mask>
                <use id="Surface" fill="#ebd09a"  fill-rule="evenodd" xlink:href="#path-1"></use>
                <g id="Icon-/-Favorite-/-Filled" mask="url(#mask-2)" fill-rule="evenodd" stroke-width="1">
                    <g transform="translate(16.000000, 16.000000)" id="↳-Icon-Color">
                        <g transform="translate(3.000000, 3.000000)">
                            <mask id="mask-4" fill="white">
                                <use xlink:href="#path-3"></use>
                            </mask>
                            <use id="Mask" fill="#000000" xlink:href="#path-3"></use>
                            <g id="✱-/-Color-/-Icons-/-Selected-/-On-Secondary-/-Active--" mask="url(#mask-4)" fill="#1A0D3B">
                                <g transform="translate(-3.000000, -3.000000)" id="Rectangle-3">
                                    <rect x="0" y="0" width="24" height="24"></rect>
                                </g>
                            </g>
                        </g>
                    </g>
                </g>
            </g>
        </g>
    </g>
</svg>