<?xml version="1.0" encoding="UTF-8"?>
<svg width="24px" height="24px" viewBox="0 0 24 24" version="1.1" xmlns="http://www.w3.org/2000/svg" xmlns:xlink="http://www.w3.org/1999/xlink">
    <defs>
        <path d="M17.4086538,8.40865385 L17.4086538,6.59134615 L6.59134615,6.59134615 L6.59134615,8.40865385 L17.4086538,8.40865385 Z M17.4086538,11.1129808 L17.4086538,9.29567308 L6.59134615,9.29567308 L6.59134615,11.1129808 L17.4086538,11.1129808 Z M17.4086538,13.8173077 L17.4086538,12 L6.59134615,12 L6.59134615,13.8173077 L17.4086538,13.8173077 Z M19.2259615,3 C19.7163486,3 20.1346137,3.17307519 20.4807692,3.51923077 C20.8269248,3.86538635 21,4.28365139 21,4.77403846 L21,15.5913462 C21,16.0817332 20.8269248,16.5072097 20.4807692,16.8677885 C20.1346137,17.2283672 19.7163486,17.4086538 19.2259615,17.4086538 L6.59134615,17.4086538 L3,21 L3,4.77403846 C3,4.28365139 3.17307519,3.86538635 3.51923077,3.51923077 C3.86538635,3.17307519 4.28365139,3 4.77403846,3 L19.2259615,3 Z" id="path-1"></path>
    </defs>
    <g id="Symbols" stroke="none" stroke-width="1" fill="none" fill-rule="evenodd">
        <g id="Icon-/-message">
            <mask id="mask-2" fill="white">
                <use xlink:href="#path-1"></use>
            </mask>
            <use id="Mask" fill="#000000" xlink:href="#path-1"></use>
            <g id="✱-/-Color-/-Icons-/-Selected-/-On-Surface-/-Inactive" mask="url(#mask-2)" fill="#1a0d3b">
                <rect id="Rectangle" x="0" y="0" width="24" height="24"></rect>
            </g>
        </g>
    </g>
</svg>